<?xml version="1.0" encoding="utf-8"?>
<!-- Generator: Adobe Illustrator 24.1.2, SVG Export Plug-In . SVG Version: 6.00 Build 0)  -->
<svg version="1.1" id="Слой_1" xmlns="http://www.w3.org/2000/svg" xmlns:xlink="http://www.w3.org/1999/xlink" x="0px" y="0px"
	 viewBox="0 0 3824.9 1080" style="enable-background:new 0 0 3824.9 1080;" xml:space="preserve">
<style type="text/css">
	.st0{fill:none;stroke:#E90006;stroke-width:2;stroke-miterlimit:10;}
</style>
<g>
	<path class="st0" d="M1669.4,818.8c-3.4,0-6.9-0.2-10.6-0.6c-22.6-2.3-39.2-15.2-49.3-38.2c-8.1-18.4-11.7-41.7-14.7-70.9
		c-4.8-46.2-10.2-87.3-28.4-122.1c-8.2-15.6-24-40.5-42-59.8c-19.3-20.7-32.2-25.2-37.9-22.5c-13.5,6.4-33.3,25.5-52.9,51.1
		c-18.6,24.2-33.4,49.8-37.8,65.2c-21.3,74.1-51.2,115-84.2,115c0,0,0,0-0.1,0c-15.6,0-30.1-9-43.1-26.8
		c-12.4-16.9-23.4-41.9-32.8-74.3c-6.1-21.2-16.8-38.6-28.1-57c-6-9.7-12.1-19.7-17.8-30.7c-14.7-28.1-45.1-52.8-72.5-43.3
		c-22.8,7.9-31.4,32.1-41.4,60.1c-5.9,16.4-11.9,33.3-21.5,47.7c-2.2,3.4-4.7,7.2-7.3,11.3c-17.9,28.2-42.2,66.5-73.6,66.5
		c-0.8,0-1.6,0-2.5-0.1c-43.1-2.7-82.5-79.8-86.8-88.5c-7-14.1-10.3-29.2-13.4-43.7c-2-9.2-3.9-17.8-6.6-26.2
		c-5.8-17.7-19.5-38.9-39.2-40.4c-23-1.7-39,22-55.9,47c-17.3,25.7-36.8,54.5-67.6,54.5c-2.6,0-5.2-0.2-8-0.6
		c-30-4.6-43.5-33.1-55.4-58.2c-10.5-22.2-20.4-43.1-39.2-48.2c-35.8-9.6-60.5,46.3-67.2,63.7l-51.8,133.9
		c-5.6,14.5-19.3,24-34.9,24c0,0,0,0,0,0c-15.6,0-29.3-9.4-35-23.9l-51.4-132c-8.5-21.8-32-71.8-66.3-64.2
		c-19,4.2-29.9,24.4-41.5,45.7c-12.8,23.6-27.3,50.4-56.2,55.4c-14.2,2.5-29-1.3-42.8-10.8c-13.8-9.6-23.6-22.7-29.3-31.9
		c-3.8-6.2-7.4-12.7-10.8-19c-8.8-16.2-17.2-31.5-30.2-41.8c-9.6-7.5-24.3-10.6-35.8-7.3c-5,1.4-11.5,4.6-14.2,12l-18.7-7
		c4.4-11.9,14.2-20.5,27.6-24.3c17.6-4.9,39.1-0.5,53.6,10.9c16.3,12.9,26,30.7,35.4,47.9c3.4,6.3,6.7,12.3,10.3,18
		c11.5,18.6,31.1,37.2,51.6,33.6c19.4-3.4,30.4-23.7,42.1-45.3c12.6-23.2,26.8-49.5,54.7-55.7c34.8-7.7,67.3,20.1,89.3,76.4
		l51.4,132c3.2,8.2,10.5,11.2,16.3,11.2c0,0,0,0,0,0c5.8,0,13.1-3,16.3-11.2L513,541.7c6.2-16,16.9-38.5,32.8-55.5
		c22.4-23.8,44-24.2,58.3-20.4c27.7,7.5,40.6,34.8,52,58.9c10.7,22.6,20.8,44,40.4,47c21.4,3.3,35.4-14.9,55.9-45.3
		c18.5-27.4,39.4-58.4,74-55.8c29.5,2.2,48.6,29.4,56.7,54.1c3,9.3,5.1,18.9,7.1,28.2c3,14,5.9,27.2,11.8,39.1
		c18.1,36.5,48.8,76.1,70.2,77.5c20.8,1.3,43.1-33.9,57.9-57.2c2.7-4.2,5.2-8.1,7.5-11.7c8.2-12.4,13.9-28.1,19.3-43.4
		c10.8-30.1,21.9-61.2,53.7-72.2c38.4-13.3,77.8,16.6,96.8,53c5.4,10.3,11.4,20,17.2,29.5c11.5,18.7,23.4,38.1,30.3,61.9
		c16,55.1,36.6,86.7,56.7,86.7c0,0,0,0,0,0c17.5,0,43.7-26.5,65-100.5c10.8-37.7,66-112,101.3-128.8c16.5-7.9,37.1,1.2,61.1,26.9
		c19.3,20.7,35.9,46.7,45.1,64.1c19.9,38,25.6,81.1,30.6,129.4c5.8,56.7,14.9,88.1,46.1,91.3c31.8,3.3,42.1-10.1,59.7-43.8
		c13-24.9,18.7-55.5,24.1-85.1c1.8-9.5,3.6-19.2,5.6-28.7c8.4-39.2,18.5-80.4,35.8-115.6c13.6-27.8,37.4-51.1,67-65.5
		c29.6-14.4,62.6-18.9,92.9-12.5l-4.1,19.6c-53.3-11.2-113.9,18.4-137.8,67.3c-16.3,33.3-26.1,73-34.2,111c-2,9.2-3.8,18.9-5.5,28.2
		c-5.8,31.1-11.7,63.2-26.1,90.8c-8.6,16.4-17.3,31.9-29.6,42C1698,814.6,1685.3,818.8,1669.4,818.8z"/>
	<path class="st0" d="M1918.3,469.9c-22,0-44.5-5.2-65.3-15.4c-29.6-14.5-53.4-37.7-67-65.5c-17.3-35.3-27.4-76.4-35.8-115.6
		c-2-9.5-3.8-19.3-5.6-28.7c-5.5-29.6-11.1-60.3-24.1-85.1c-17.6-33.7-27.9-47.1-59.7-43.8c-31.2,3.2-40.3,34.6-46.1,91.3
		c-5,48.3-10.7,91.4-30.6,129.4c-9.2,17.5-25.8,43.5-45.1,64.1c-24,25.7-44.6,34.8-61.1,26.9c-35.3-16.8-90.5-91.1-101.3-128.8
		c-21.2-74.1-47.5-100.5-65-100.6c0,0,0,0,0,0c-20.1,0-40.8,31.6-56.7,86.7c-6.9,23.8-18.8,43.2-30.3,61.9
		c-5.8,9.4-11.8,19.1-17.2,29.5c-19,36.4-58.3,66.3-96.8,53c-31.8-11-43-42.1-53.7-72.2c-5.4-15.3-11.1-31-19.3-43.4
		c-2.4-3.5-4.9-7.5-7.5-11.7c-14.5-22.9-36.3-57.2-56.8-57.2c-0.4,0-0.8,0-1.1,0c-21.3,1.4-52,40.9-70.2,77.5
		c-5.9,11.9-8.8,25.1-11.8,39.1c-2,9.2-4.1,18.8-7.1,28.1c-8.1,24.7-27.2,51.9-56.7,54.1c-1.4,0.1-2.7,0.1-4,0.1
		c-32.3,0-52.3-29.6-70-55.9c-20.5-30.4-34.5-48.6-55.9-45.3c-19.5,3-29.7,24.4-40.4,47c-11.4,24.1-24.4,51.4-52,58.9
		c-14.2,3.8-35.9,3.4-58.3-20.4c-16-16.9-26.7-39.5-32.8-55.5l-51.8-133.9c-3.2-8.2-10.5-11.2-16.3-11.2c0,0,0,0,0,0
		c-5.8,0-13.1,2.9-16.3,11.1l-51.4,131.9c-21.9,56.3-54.5,84.2-89.3,76.4c-27.9-6.2-42.1-32.5-54.7-55.7
		c-11.7-21.5-22.7-41.9-42.1-45.3c-20.5-3.6-40.1,15-51.6,33.6c-3.6,5.8-6.8,11.7-10.3,18c-9.4,17.2-19.1,35-35.4,47.9
		c-14.5,11.5-36,15.8-53.6,10.9C26.8,452.5,17,443.9,12.6,432l18.7-7c2.8,7.4,9.3,10.6,14.2,12c11.5,3.2,26.3,0.2,35.8-7.3
		c13.1-10.3,21.4-25.6,30.2-41.8c3.4-6.3,6.9-12.8,10.8-19c5.7-9.3,15.5-22.3,29.3-31.9c13.8-9.6,28.6-13.3,42.8-10.9
		c28.9,5,43.4,31.8,56.2,55.4c11.6,21.3,22.5,41.5,41.5,45.7c34.3,7.6,57.8-42.4,66.3-64.2l51.4-131.9c5.7-14.5,19.4-23.9,35-23.9
		c0,0,0,0,0,0c15.6,0,29.3,9.4,34.9,24l51.8,133.9c6.7,17.4,31.5,73.4,67.2,63.7c18.8-5.1,28.7-26,39.2-48.2
		c11.9-25.1,25.4-53.6,55.4-58.2c35.4-5.5,56.7,26.1,75.5,53.9c16.9,25.1,32.9,48.8,55.9,47c19.7-1.5,33.4-22.7,39.2-40.4
		c2.7-8.4,4.6-17,6.6-26.2c3.2-14.6,6.5-29.6,13.4-43.7c4.3-8.8,43.7-85.8,86.8-88.5c0.8-0.1,1.6-0.1,2.5-0.1
		c31.4,0,55.7,38.3,73.6,66.5c2.6,4.1,5.1,8,7.3,11.3c9.6,14.4,15.6,31.4,21.5,47.7c10,28,18.7,52.2,41.4,60.1
		c27.4,9.5,57.8-15.2,72.5-43.3c5.7-11,11.9-21,17.8-30.7c11.3-18.4,22-35.8,28.1-57c9.4-32.4,20.4-57.4,32.8-74.3
		c13-17.8,27.5-26.8,43.1-26.8c0,0,0,0,0.1,0c33,0,62.9,40.9,84.2,115c4.4,15.4,19.3,41,37.8,65.2c19.6,25.6,39.4,44.7,52.9,51.1
		c5.6,2.7,18.6-1.8,37.9-22.5c18-19.2,33.8-44.2,42-59.8c18.3-34.8,23.7-75.9,28.4-122.1c3-29.2,6.7-52.5,14.7-70.9
		c10.1-23.1,26.7-35.9,49.3-38.2c21.1-2.2,36.9,1.8,49.9,12.4c12.3,10.1,21,25.7,29.6,42c14.4,27.5,20.3,59.7,26.1,90.8
		c1.7,9.3,3.5,19,5.5,28.2c8.1,38,17.8,77.7,34.2,111c24,48.9,84.5,78.5,137.8,67.3l4.1,19.6C1936.9,469,1927.6,469.9,1918.3,469.9z
		"/>
</g>
<g>
	<path class="st0" d="M25.5,428.5c9,24.1,45.4,25,65.6,9s29.8-41.5,43.3-63.4s36.5-42.6,61.9-38.2c47.8,8.4,49.9,90.5,97.2,101
		c37.4,8.3,63.9-34.7,77.8-70.3c17.1-44,34.3-88,51.4-131.9c9.1-23.4,42.2-23.4,51.3,0.1l51.8,133.9c14,36.1,41.8,79.9,79.2,69.8
		c47.4-12.8,44.9-98.6,93.5-106.1c57.8-8.9,72.4,105.4,130.7,101c23.8-1.8,40.5-24.6,47.9-47.3s8.9-47.3,19.5-68.6
		c13.7-27.7,47.7-81,78.5-83s57.3,47.6,74.4,73.3c24.9,37.4,25.5,97,68,111.7c33.5,11.6,68.2-16.7,84.6-48.1s36.9-55.5,46.7-89.5
		c40.2-138.7,104-115,140.9,13.9c10,34.8,63.3,107,96,122.6c27.2,12.9,73.8-50,93-86.7c19.9-37.9,25.1-83.2,29.5-125.7
		c5.3-51.8,13.5-95.9,55.1-100.2c38.6-4,51.6,14.8,69.5,49.1s22.2,76.9,30.6,116.4c8.1,37.9,17.9,78.5,35,113.3
		c26.2,53.4,90.7,84.9,148.9,72.7"/>
	<path class="st0" d="M25.5,431.5c9,21.6,45.4,22.4,65.6,8.1s29.8-37.1,43.3-56.7s36.5-38.1,61.9-34.1c47.8,7.5,49.9,81,97.2,90.4
		c37.4,7.4,63.9-31,77.8-62.9c17.1-39.4,34.3-78.7,51.4-118.1c9.1-20.9,42.2-20.9,51.3,0L525.9,378c14,32.3,41.8,71.5,79.2,62.4
		c47.4-11.5,44.9-88.3,93.5-95c57.8-8,72.4,94.3,130.7,90.4c23.8-1.6,40.5-22,47.9-42.3s8.9-42.3,19.5-61.4
		c13.7-24.8,47.7-72.5,78.5-74.3s57.3,42.6,74.4,65.6c24.9,33.5,25.5,86.8,68,100c33.5,10.4,68.2-15,84.6-43.1s36.9-49.6,46.7-80.1
		c40.2-124.1,104-102.9,140.9,12.4c10,31.1,63.3,95.7,96,109.6c27.2,11.6,73.8-44.7,93-77.6c19.9-33.9,25.1-74.4,29.5-112.5
		c5.3-46.3,13.5-85.8,55.1-89.6c38.6-3.5,51.6,13.2,69.5,44s22.2,68.8,30.6,104.2c8.1,33.9,17.9,70.2,35,101.4
		c26.2,47.8,90.7,76,148.9,65"/>
	<path class="st0" d="M25.5,434.5c9,19.1,45.4,19.7,65.6,7.1c20.2-12.6,29.8-32.7,43.3-50s36.5-33.6,61.9-30.1
		c47.8,6.6,49.9,71.5,97.2,79.8c37.4,6.5,63.9-27.4,77.8-55.5c17.1-34.7,34.3-69.4,51.4-104.2c9.1-18.5,42.2-18.4,51.3,0l51.8,105.7
		c14,28.5,41.8,63.1,79.2,55.1c47.4-10.1,44.9-77.9,93.5-83.8c57.8-7,72.4,83.2,130.7,79.8c23.8-1.4,40.5-19.4,47.9-37.3
		c7.4-17.9,8.9-37.3,19.5-54.2c13.7-21.8,47.7-64,78.5-65.5c30.8-1.5,57.3,37.6,74.4,57.9c24.9,29.5,25.5,76.6,68,88.2
		c33.5,9.1,68.2-13.2,84.6-38s36.9-43.8,46.7-70.6c40.2-109.5,104-90.8,140.9,11c10,27.5,63.3,84.5,96,96.8
		c27.2,10.2,73.8-39.5,93-68.4c19.9-29.9,25.1-65.7,29.5-99.3c5.3-40.9,13.5-75.7,55.1-79.1c38.6-3.1,51.6,11.7,69.5,38.8
		s22.2,60.7,30.6,91.9c8.1,29.9,17.9,62,35,89.5c26.2,42.1,90.7,67,148.9,57.4"/>
	<path class="st0" d="M25.5,437.5c9,16.5,45.4,17.1,65.6,6.2c20.2-10.9,29.8-28.4,43.3-43.4c13.6-15,36.5-29.1,61.9-26.1
		c47.8,5.7,49.9,61.9,97.2,69.1c37.4,5.7,63.9-23.7,77.8-48.1c17.1-30.1,34.3-60.2,51.4-90.3c9.1-16,42.2-16,51.3,0l51.8,91.6
		c14,24.7,41.8,54.6,79.2,47.7c47.4-8.8,44.9-67.5,93.5-72.6c57.8-6.1,72.4,72.1,130.7,69.1c23.8-1.2,40.5-16.8,47.9-32.3
		c7.4-15.5,8.9-32.3,19.5-46.9c13.7-18.9,47.7-55.5,78.5-56.8s57.3,32.6,74.4,50.1c24.9,25.6,25.5,66.4,68,76.4
		c33.5,7.9,68.2-11.5,84.6-32.9c16.4-21.5,36.9-38,46.7-61.2c40.2-94.9,104-78.7,140.9,9.5c10,23.8,63.3,73.2,96,83.9
		c27.2,8.8,73.8-34.2,93-59.3c19.9-25.9,25.1-56.9,29.5-86c5.3-35.4,13.5-65.6,55.1-68.6c38.6-2.7,51.6,10.1,69.5,33.6
		s22.2,52.6,30.6,79.7c8.1,25.9,17.9,53.7,35,77.5c26.2,36.5,90.7,58.1,148.9,49.7"/>
	<path class="st0" d="M25.5,440.5c9,14,45.4,14.5,65.6,5.2s29.8-24,43.3-36.7s36.5-24.7,61.9-22.1c47.8,4.8,49.9,52.4,97.2,58.5
		c37.4,4.8,63.9-20.1,77.8-40.7c17.1-25.5,34.3-50.9,51.4-76.4c9.1-13.5,42.2-13.5,51.3,0l51.8,77.5c14,20.9,41.8,46.2,79.2,40.4
		c47.4-7.4,44.9-57.1,93.5-61.4c57.8-5.2,72.4,61,130.7,58.5c23.8-1,40.5-14.2,47.9-27.4c7.4-13.1,8.9-27.4,19.5-39.7
		c13.7-16,47.7-46.9,78.5-48s57.3,27.5,74.4,42.4c24.9,21.7,25.5,56.2,68,64.7c33.5,6.7,68.2-9.7,84.6-27.9s36.9-32.1,46.7-51.8
		c40.2-80.3,104-66.6,140.9,8c10,20.1,63.3,61.9,96,71c27.2,7.5,73.8-28.9,93-50.2c19.9-21.9,25.1-48.2,29.5-72.8
		c5.3-30,13.5-55.5,55.1-58c38.6-2.3,51.6,8.6,69.5,28.5s22.2,44.5,30.6,67.4c8.1,22,17.9,45.5,35,65.6
		c26.2,30.9,90.7,49.1,148.9,42.1"/>
	<path class="st0" d="M25.5,443.5c9,11.4,45.4,11.8,65.6,4.3c20.2-7.6,29.8-19.6,43.3-30c13.6-10.4,36.5-20.2,61.9-18.1
		c47.8,4,49.9,42.9,97.2,47.9c37.4,3.9,63.9-16.4,77.8-33.3c17.1-20.8,34.3-41.7,51.4-62.5c9.1-11.1,42.2-11.1,51.3,0l51.8,63.4
		c14,17.1,41.8,37.8,79.2,33c47.4-6.1,44.9-46.7,93.5-50.3c57.8-4.2,72.4,49.9,130.7,47.9c23.8-0.8,40.5-11.6,47.9-22.4
		s8.9-22.4,19.5-32.5c13.7-13.1,47.7-38.4,78.5-39.3s57.3,22.5,74.4,34.7c24.9,17.7,25.5,46,68,52.9c33.5,5.5,68.2-7.9,84.6-22.8
		s36.9-26.3,46.7-42.4c40.2-65.7,104-54.5,140.9,6.6c10,16.5,63.3,50.7,96,58c27.2,6.1,73.8-23.7,93-41.1
		c19.9-18,25.1-39.4,29.5-59.6c5.3-24.5,13.5-45.4,55.1-47.5c38.6-1.9,51.6,7,69.5,23.3c17.9,16.3,22.2,36.4,30.6,55.1
		c8.1,18,17.9,37.2,35,53.7c26.2,25.3,90.7,40.2,148.9,34.4"/>
	<path class="st0" d="M25.5,446.5c9,8.9,45.4,9.2,65.6,3.3s29.8-15.3,43.3-23.4s36.5-15.7,61.9-14.1c47.8,3.1,49.9,33.4,97.2,37.2
		c37.4,3,63.9-12.8,77.8-25.9c17.1-16.2,34.3-32.4,51.4-48.6c9.1-8.6,42.2-8.6,51.3,0l51.8,49.3c14,13.3,41.8,29.4,79.2,25.7
		c47.4-4.7,44.9-36.3,93.5-39.1c57.8-3.3,72.4,38.8,130.7,37.2c23.8-0.6,40.5-9.1,47.9-17.4c7.4-8.3,8.9-17.4,19.5-25.3
		c13.7-10.2,47.7-29.9,78.5-30.6c30.8-0.7,57.3,17.5,74.4,27c24.9,13.8,25.5,35.7,68,41.2c33.5,4.3,68.2-6.2,84.6-17.7
		s36.9-20.4,46.7-33c40.2-51.1,104-42.4,140.9,5.1c10,12.8,63.3,39.4,96,45.1c27.2,4.8,73.8-18.4,93-31.9
		c19.9-14,25.1-30.6,29.5-46.3c5.3-19.1,13.5-35.4,55.1-36.9c38.6-1.5,51.6,5.5,69.5,18.1s22.2,28.3,30.6,42.9
		c8.1,14,17.9,28.9,35,41.8c26.2,19.7,90.7,31.3,148.9,26.8"/>
	<path class="st0" d="M25.5,449.5c9,6.4,45.4,6.6,65.6,2.4c20.2-4.2,29.8-10.9,43.3-16.7s36.5-11.2,61.9-10
		c47.8,2.2,49.9,23.8,97.2,26.6c37.4,2.2,63.9-9.1,77.8-18.5c17.1-11.6,34.3-23.1,51.4-34.7c9.1-6.1,42.2-6.1,51.3,0l51.8,35.2
		c14,9.5,41.8,21,79.2,18.4c47.4-3.4,44.9-26,93.5-27.9c57.8-2.3,72.4,27.7,130.7,26.6c23.8-0.5,40.5-6.5,47.9-12.4
		s8.9-12.4,19.5-18c13.7-7.3,47.7-21.3,78.5-21.8s57.3,12.5,74.4,19.3c24.9,9.9,25.5,25.5,68,29.4c33.5,3,68.2-4.4,84.6-12.7
		s36.9-14.6,46.7-23.5c40.2-36.5,104-30.3,140.9,3.6c10,9.2,63.3,28.2,96,32.3c27.2,3.4,73.8-13.1,93-22.8
		c19.9-10,25.1-21.9,29.5-33.1c5.3-13.6,13.5-25.3,55.1-26.4c38.6-1,51.6,3.9,69.5,12.9c17.9,9,22.2,20.3,30.6,30.6
		c8.1,10,17.9,20.7,35,29.8c26.2,14,90.7,22.3,148.9,19.1"/>
	<path class="st0" d="M25.5,452.5c9,3.8,45.4,4,65.6,1.4s29.8-6.5,43.3-10c13.6-3.5,36.5-6.7,61.9-6c47.8,1.3,49.9,14.3,97.2,16
		c37.4,1.3,63.9-5.5,77.8-11.1c17.1-6.9,34.3-13.9,51.4-20.8c9.1-3.7,42.2-3.7,51.3,0l51.8,21.1c14,5.7,41.8,12.6,79.2,11
		c47.4-2,44.9-15.6,93.5-16.8c57.8-1.4,72.4,16.6,130.7,16c23.8-0.3,40.5-3.9,47.9-7.5s8.9-7.5,19.5-10.8
		c13.7-4.4,47.7-12.8,78.5-13.1s57.3,7.5,74.4,11.6c24.9,5.9,25.5,15.3,68,17.6c33.5,1.8,68.2-2.6,84.6-7.6s36.9-8.8,46.7-14.1
		c40.2-21.9,104-18.2,140.9,2.2c10,5.5,63.3,16.9,96,19.4c27.2,2,73.8-7.9,93-13.7c19.9-6,25.1-13.1,29.5-19.9
		c5.3-8.2,13.5-15.1,55.1-15.8c38.6-0.6,51.6,2.3,69.5,7.8c17.9,5.4,22.2,12.1,30.6,18.4c8.1,6,17.9,12.4,35,17.9
		c26.2,8.4,90.7,13.4,148.9,11.5"/>
	<path class="st0" d="M25.5,455.5c9,1.3,45.4,1.3,65.6,0.5s29.8-2.2,43.3-3.3s36.5-2.2,61.9-2c47.8,0.4,49.9,4.8,97.2,5.3
		c37.4,0.4,63.9-1.8,77.8-3.7c17.1-2.3,34.3-4.6,51.4-6.9c9.1-1.2,42.2-1.2,51.3,0l51.8,7c14,1.9,41.8,4.2,79.2,3.7
		c47.4-0.7,44.9-5.2,93.5-5.6c57.8-0.5,72.4,5.5,130.7,5.3c23.8-0.1,40.5-1.3,47.9-2.5c7.4-1.2,8.9-2.5,19.5-3.6
		c13.7-1.5,47.7-4.3,78.5-4.4s57.3,2.5,74.4,3.9c24.9,2,25.5,5.1,68,5.9c33.5,0.6,68.2-0.9,84.6-2.5s36.9-2.9,46.7-4.7
		c40.2-7.3,104-6,140.9,0.7c10,1.8,63.3,5.6,96,6.5c27.2,0.7,73.8-2.6,93-4.6c19.9-2,25.1-4.4,29.5-6.6c5.3-2.7,13.5-5,55.1-5.3
		c38.6-0.2,51.6,0.8,69.5,2.6c17.9,1.8,22.2,4,30.6,6.1c8.1,2,17.9,4.1,35,6c26.2,2.8,90.7,4.5,148.9,3.8"/>
	<path class="st0" d="M25.5,458.5c9-1.3,45.4-1.3,65.6-0.5c20.2,0.8,29.8,2.2,43.3,3.3c13.6,1.1,36.5,2.2,61.9,2
		c47.8-0.4,49.9-4.8,97.2-5.3c37.4-0.4,63.9,1.8,77.8,3.7c17.1,2.3,34.3,4.6,51.4,6.9c9.1,1.2,42.2,1.2,51.3,0l51.8-7
		c14-1.9,41.8-4.2,79.2-3.7c47.4,0.7,44.9,5.2,93.5,5.6c57.8,0.5,72.4-5.5,130.7-5.3c23.8,0.1,40.5,1.3,47.9,2.5
		c7.4,1.2,8.9,2.5,19.5,3.6c13.7,1.5,47.7,4.3,78.5,4.4s57.3-2.5,74.4-3.9c24.9-2,25.5-5.1,68-5.9c33.5-0.6,68.2,0.9,84.6,2.5
		s36.9,2.9,46.7,4.7c40.2,7.3,104,6,140.9-0.7c10-1.8,63.3-5.6,96-6.5c27.2-0.7,73.8,2.6,93,4.6c19.9,2,25.1,4.4,29.5,6.6
		c5.3,2.7,13.5,5,55.1,5.3c38.6,0.2,51.6-0.8,69.5-2.6c17.9-1.8,22.2-4,30.6-6.1c8.1-2,17.9-4.1,35-6c26.2-2.8,90.7-4.5,148.9-3.8"
		/>
	<path class="st0" d="M25.5,461.5c9-3.8,45.4-4,65.6-1.4c20.2,2.5,29.8,6.5,43.3,10c13.6,3.5,36.5,6.7,61.9,6
		c47.8-1.3,49.9-14.3,97.2-16c37.4-1.3,63.9,5.5,77.8,11.1c17.1,6.9,34.3,13.9,51.4,20.8c9.1,3.7,42.2,3.7,51.3,0l51.8-21.1
		c14-5.7,41.8-12.6,79.2-11c47.4,2,44.9,15.6,93.5,16.8c57.8,1.4,72.4-16.6,130.7-16c23.8,0.3,40.5,3.9,47.9,7.5s8.9,7.5,19.5,10.8
		c13.7,4.4,47.7,12.8,78.5,13.1s57.3-7.5,74.4-11.6c24.9-5.9,25.5-15.3,68-17.6c33.5-1.8,68.2,2.6,84.6,7.6s36.9,8.8,46.7,14.1
		c40.2,21.9,104,18.2,140.9-2.2c10-5.5,63.3-16.9,96-19.4c27.2-2,73.8,7.9,93,13.7c19.9,6,25.1,13.1,29.5,19.9
		c5.3,8.2,13.5,15.1,55.1,15.8c38.6,0.6,51.6-2.3,69.5-7.8c17.9-5.4,22.2-12.1,30.6-18.4c8.1-6,17.9-12.4,35-17.9
		c26.2-8.4,90.7-13.4,148.9-11.5"/>
	<path class="st0" d="M25.5,464.5c9-6.4,45.4-6.6,65.6-2.4c20.2,4.2,29.8,10.9,43.3,16.7s36.5,11.2,61.9,10
		c47.8-2.2,49.9-23.8,97.2-26.6c37.4-2.2,63.9,9.1,77.8,18.5c17.1,11.6,34.3,23.1,51.4,34.7c9.1,6.2,42.2,6.1,51.3,0l51.8-35.2
		c14-9.5,41.8-21,79.2-18.4c47.4,3.4,44.9,26,93.5,27.9c57.8,2.3,72.4-27.7,130.7-26.6c23.8,0.5,40.5,6.5,47.9,12.4
		s8.9,12.4,19.5,18c13.7,7.3,47.7,21.3,78.5,21.8s57.3-12.5,74.4-19.3c24.9-9.9,25.5-25.5,68-29.4c33.5-3,68.2,4.4,84.6,12.7
		c16.4,8.3,36.9,14.6,46.7,23.5c40.2,36.5,104,30.3,140.9-3.6c10-9.2,63.3-28.2,96-32.3c27.2-3.4,73.8,13.1,93,22.8
		c19.9,10,25.1,21.9,29.5,33.1c5.3,13.6,13.5,25.3,55.1,26.4c38.6,1,51.6-3.9,69.5-12.9s22.2-20.3,30.6-30.6
		c8.1-10,17.9-20.7,35-29.8c26.2-14,90.7-22.3,148.9-19.1"/>
	<path class="st0" d="M25.5,467.5c9-8.9,45.4-9.2,65.6-3.3s29.8,15.3,43.3,23.4s36.5,15.7,61.9,14.1c47.8-3.1,49.9-33.4,97.2-37.2
		c37.4-3,63.9,12.8,77.8,25.9c17.1,16.2,34.3,32.4,51.4,48.6c9.1,8.6,42.2,8.6,51.3,0l51.8-49.3c14-13.3,41.8-29.4,79.2-25.7
		c47.4,4.7,44.9,36.3,93.5,39.1c57.8,3.3,72.4-38.8,130.7-37.2c23.8,0.6,40.5,9.1,47.9,17.4c7.4,8.3,8.9,17.4,19.5,25.3
		c13.7,10.2,47.7,29.9,78.5,30.6s57.3-17.5,74.4-27c24.9-13.8,25.5-35.7,68-41.2c33.5-4.3,68.2,6.2,84.6,17.7s36.9,20.4,46.7,33
		c40.2,51.1,104,42.4,140.9-5.1c10-12.8,63.3-39.4,96-45.1c27.2-4.8,73.8,18.4,93,31.9c19.9,14,25.1,30.6,29.5,46.3
		c5.3,19.1,13.5,35.3,55.1,36.9c38.6,1.5,51.6-5.5,69.5-18.1s22.2-28.3,30.6-42.9c8.1-14,17.9-28.9,35-41.8
		c26.2-19.7,90.7-31.3,148.9-26.8"/>
	<path class="st0" d="M25.5,470.5c9-11.4,45.4-11.8,65.6-4.3c20.2,7.6,29.8,19.6,43.3,30c13.6,10.4,36.5,20.2,61.9,18.1
		c47.8-4,49.9-42.9,97.2-47.9c37.4-3.9,63.9,16.4,77.8,33.3c17.1,20.8,34.3,41.7,51.4,62.5c9.1,11.1,42.2,11.1,51.3,0l51.8-63.4
		c14-17.1,41.8-37.8,79.2-33c47.4,6.1,44.9,46.7,93.5,50.3c57.8,4.2,72.4-49.9,130.7-47.9c23.8,0.8,40.5,11.6,47.9,22.4
		s8.9,22.4,19.5,32.5c13.7,13.1,47.7,38.4,78.5,39.3s57.3-22.5,74.4-34.7c24.9-17.7,25.5-46,68-52.9c33.5-5.5,68.2,7.9,84.6,22.8
		s36.9,26.3,46.7,42.4c40.2,65.7,104,54.5,140.9-6.6c10-16.5,63.3-50.7,96-58c27.2-6.1,73.8,23.7,93,41.1
		c19.9,18,25.1,39.4,29.5,59.6c5.3,24.5,13.5,45.4,55.1,47.5c38.6,1.9,51.6-7,69.5-23.3c17.9-16.3,22.2-36.4,30.6-55.2
		c8.1-18,17.9-37.2,35-53.7c26.2-25.3,90.7-40.2,148.9-34.4"/>
	<path class="st0" d="M25.5,473.5c9-14,45.4-14.5,65.6-5.2c20.2,9.3,29.8,24,43.3,36.7c13.6,12.7,36.5,24.7,61.9,22.1
		c47.8-4.8,49.9-52.4,97.2-58.5c37.4-4.8,63.9,20.1,77.8,40.7c17.1,25.5,34.3,50.9,51.4,76.4c9.1,13.5,42.2,13.5,51.3,0l51.8-77.5
		c14-20.9,41.8-46.2,79.2-40.4c47.4,7.4,44.9,57.1,93.5,61.4c57.8,5.2,72.4-61,130.7-58.5c23.8,1,40.5,14.2,47.9,27.4
		c7.4,13.1,8.9,27.4,19.5,39.7c13.7,16,47.7,46.9,78.5,48s57.3-27.5,74.4-42.4c24.9-21.7,25.5-56.2,68-64.7
		c33.5-6.7,68.2,9.7,84.6,27.9s36.9,32.1,46.7,51.8c40.2,80.3,104,66.6,140.9-8c10-20.2,63.3-61.9,96-71c27.2-7.5,73.8,28.9,93,50.2
		c19.9,21.9,25.1,48.2,29.5,72.8c5.3,30,13.5,55.5,55.1,58c38.6,2.3,51.6-8.6,69.5-28.5s22.2-44.5,30.6-67.4
		c8.1-22,17.9-45.5,35-65.6c26.2-30.9,90.7-49.1,148.9-42.1"/>
	<path class="st0" d="M25.5,476.5c9-16.5,45.4-17.1,65.6-6.2c20.2,10.9,29.8,28.4,43.3,43.4c13.6,15,36.5,29.2,61.9,26.1
		c47.8-5.7,49.9-61.9,97.2-69.1c37.4-5.7,63.9,23.7,77.8,48.1c17.1,30.1,34.3,60.2,51.4,90.3c9.1,16,42.2,16,51.3,0l51.8-91.6
		c14-24.7,41.8-54.6,79.2-47.7c47.4,8.8,44.9,67.5,93.5,72.6c57.8,6.1,72.4-72.1,130.7-69.1c23.8,1.2,40.5,16.8,47.9,32.3
		c7.4,15.5,8.9,32.3,19.5,46.9c13.7,18.9,47.7,55.5,78.5,56.8c30.8,1.3,57.3-32.6,74.4-50.2c24.9-25.6,25.5-66.4,68-76.4
		c33.5-7.9,68.2,11.5,84.6,32.9s36.9,38,46.7,61.2c40.2,94.9,104,78.7,140.9-9.5c10-23.8,63.3-73.2,96-83.9
		c27.2-8.8,73.8,34.2,93,59.3c19.9,25.9,25.1,56.9,29.5,86c5.3,35.4,13.5,65.6,55.1,68.6c38.6,2.7,51.6-10.1,69.5-33.6
		c17.9-23.5,22.2-52.6,30.6-79.7c8.1-25.9,17.9-53.7,35-77.5c26.2-36.5,90.7-58.1,148.9-49.7"/>
	<path class="st0" d="M25.5,479.5c9-19.1,45.4-19.7,65.6-7.1s29.8,32.7,43.3,50s36.5,33.6,61.9,30.1c47.8-6.6,49.9-71.5,97.2-79.8
		c37.4-6.5,63.9,27.4,77.8,55.5c17.1,34.7,34.3,69.4,51.4,104.2c9.1,18.5,42.2,18.4,51.3,0l51.8-105.7c14-28.5,41.8-63.1,79.2-55.1
		c47.4,10.1,44.9,77.9,93.5,83.8c57.8,7,72.4-83.2,130.7-79.8c23.8,1.4,40.5,19.4,47.9,37.3c7.4,17.9,8.9,37.3,19.5,54.2
		c13.7,21.8,47.7,64,78.5,65.5c30.8,1.5,57.3-37.6,74.4-57.9c24.9-29.5,25.5-76.6,68-88.2c33.5-9.1,68.2,13.2,84.6,38
		c16.4,24.8,36.9,43.8,46.7,70.7c40.2,109.5,104,90.8,140.9-11c10-27.5,63.3-84.5,96-96.8c27.2-10.2,73.8,39.5,93,68.4
		c19.9,29.9,25.1,65.7,29.5,99.3c5.3,40.8,13.5,75.7,55.1,79.1c38.6,3.1,51.6-11.7,69.5-38.8s22.2-60.7,30.6-91.9
		c8.1-29.9,17.9-62,35-89.5c26.2-42.1,90.7-67,148.9-57.4"/>
	<path class="st0" d="M25.5,482.5c9-21.6,45.4-22.4,65.6-8.1s29.8,37.1,43.3,56.7s36.5,38.1,61.9,34.2c47.8-7.5,49.9-81,97.2-90.4
		c37.4-7.4,63.9,31,77.8,62.9c17.1,39.3,34.3,78.7,51.4,118.1c9.1,20.9,42.2,20.9,51.3,0l51.8-119.8c14-32.3,41.8-71.5,79.2-62.4
		c47.4,11.5,44.9,88.3,93.5,95c57.8,8,72.4-94.3,130.7-90.4c23.8,1.6,40.5,22,47.9,42.3c7.4,20.3,8.9,42.3,19.5,61.4
		c13.7,24.8,47.7,72.5,78.5,74.3s57.3-42.6,74.4-65.6c24.9-33.5,25.5-86.8,68-100c33.5-10.4,68.2,15,84.6,43.1s36.9,49.6,46.7,80.1
		c40.2,124.1,104,102.9,140.9-12.4c10-31.2,63.3-95.7,96-109.6c27.2-11.6,73.8,44.7,93,77.6c19.9,33.9,25.1,74.4,29.5,112.5
		c5.3,46.3,13.5,85.8,55.1,89.7c38.6,3.5,51.6-13.2,69.5-44c17.9-30.7,22.2-68.8,30.6-104.2c8.1-33.9,17.9-70.2,35-101.4
		c26.2-47.8,90.7-76,148.9-65"/>
	<path class="st0" d="M25.5,485.5c9-24.1,45.4-25,65.6-9c20.2,16,29.8,41.5,43.3,63.4c13.6,21.9,36.5,42.6,61.9,38.2
		c47.8-8.3,49.9-90.5,97.2-101c37.4-8.3,63.9,34.7,77.8,70.3c17.1,44,34.3,88,51.4,131.9c9.1,23.4,42.2,23.3,51.3-0.1l51.8-133.9
		c14-36.1,41.8-79.9,79.2-69.8c47.4,12.8,44.9,98.6,93.5,106.1c57.8,8.9,72.4-105.4,130.7-101c23.8,1.8,40.5,24.6,47.9,47.3
		s8.9,47.3,19.5,68.6c13.7,27.7,47.7,81,78.5,83s57.3-47.6,74.4-73.3c24.9-37.4,25.5-97,68-111.7c33.5-11.6,68.2,16.7,84.6,48.1
		s36.9,55.5,46.7,89.5c40.2,138.7,104,115,140.9-13.9c10-34.8,63.3-107,96-122.5c27.2-12.9,73.8,50,93,86.7
		c19.9,37.9,25.1,83.2,29.5,125.7c5.3,51.8,13.5,95.9,55.1,100.2c38.6,4,51.6-14.8,69.5-49.1c17.9-34.3,22.2-76.9,30.6-116.4
		c8.1-37.9,17.9-78.5,35-113.3c26.2-53.4,90.7-84.9,148.9-72.7"/>
</g>
<g>
	<path class="st0" d="M3566.4,820.2c-3.4,0-6.9-0.2-10.6-0.6c-22.6-2.3-39.1-15.2-49.3-38.2c-8.1-18.4-11.7-41.7-14.7-70.9
		c-4.8-46.2-10.2-87.3-28.4-122.1c-8.2-15.6-24-40.5-42-59.8c-19.3-20.7-32.2-25.2-37.9-22.5c-13.5,6.4-33.3,25.5-52.9,51.1
		c-18.6,24.2-33.4,49.8-37.8,65.2c-21.3,74.1-51.2,115-84.2,115c0,0,0,0-0.1,0c-15.6,0-30.1-9-43.1-26.8
		c-12.4-16.9-23.4-41.9-32.8-74.3c-6.1-21.2-16.8-38.6-28.1-57c-6-9.7-12.1-19.7-17.8-30.7c-14.7-28.1-45.1-52.8-72.5-43.3
		c-22.8,7.9-31.4,32.1-41.4,60.1c-5.9,16.4-11.9,33.3-21.5,47.7c-2.2,3.4-4.7,7.2-7.3,11.3c-17.9,28.2-42.2,66.5-73.6,66.5
		c-0.8,0-1.6,0-2.5-0.1c-43.1-2.7-82.5-79.8-86.8-88.5c-7-14.1-10.3-29.2-13.4-43.7c-2-9.2-3.9-17.8-6.6-26.2
		c-5.8-17.7-19.5-38.9-39.2-40.4c-23.1-1.7-39,22-55.9,47c-17.3,25.7-36.8,54.5-67.6,54.5c-2.6,0-5.2-0.2-8-0.6
		c-30-4.6-43.5-33.1-55.4-58.2c-10.5-22.2-20.4-43.1-39.2-48.2c-35.8-9.6-60.5,46.3-67.2,63.7l-51.8,133.9
		c-5.6,14.5-19.3,24-34.9,24c0,0,0,0-0.1,0c-15.6,0-29.3-9.4-34.9-23.9l-51.4-132c-8.5-21.8-32-71.8-66.3-64.2
		c-19,4.2-29.9,24.4-41.5,45.7c-12.8,23.6-27.3,50.4-56.2,55.4c-14.2,2.5-29-1.3-42.8-10.8c-13.8-9.6-23.6-22.7-29.3-31.9
		c-3.9-6.2-7.4-12.7-10.8-19c-8.8-16.2-17.2-31.5-30.2-41.8c-9.6-7.5-24.3-10.6-35.8-7.3c-5,1.4-11.5,4.6-14.2,12l-18.7-7
		c4.4-11.9,14.2-20.5,27.6-24.3c17.6-4.9,39.1-0.5,53.6,10.9c16.3,12.9,26,30.7,35.4,47.9c3.4,6.3,6.7,12.3,10.3,18
		c11.5,18.6,31.1,37.2,51.6,33.6c19.4-3.4,30.4-23.7,42.1-45.3c12.6-23.2,26.8-49.5,54.7-55.7c34.8-7.7,67.3,20.1,89.3,76.4
		l51.4,132c3.2,8.2,10.5,11.2,16.3,11.2c0,0,0,0,0,0c5.8,0,13.1-3,16.3-11.2l51.8-133.9c6.2-16,16.9-38.5,32.8-55.5
		c22.4-23.8,44-24.2,58.3-20.4c27.7,7.5,40.6,34.8,52,58.9c10.7,22.6,20.8,44,40.4,47c21.4,3.3,35.4-14.9,55.9-45.3
		c18.5-27.4,39.4-58.4,74-55.8c29.5,2.2,48.6,29.4,56.7,54.1c3,9.3,5.1,18.9,7.1,28.2c3.1,14,5.9,27.2,11.8,39.1
		c18.1,36.5,48.8,76.1,70.1,77.5c20.8,1.3,43.1-33.9,57.9-57.2c2.6-4.2,5.2-8.1,7.5-11.7c8.2-12.4,13.9-28.1,19.3-43.4
		c10.8-30.1,21.9-61.2,53.7-72.2c38.4-13.3,77.8,16.6,96.8,53c5.4,10.3,11.4,20,17.1,29.5c11.5,18.7,23.4,38.1,30.3,61.9
		c16,55.1,36.6,86.7,56.7,86.7c0,0,0,0,0,0c17.5,0,43.7-26.5,65-100.5c10.8-37.7,66-112,101.3-128.8c16.5-7.9,37.1,1.2,61.1,26.9
		c19.3,20.7,35.9,46.7,45.1,64.1c19.9,38,25.6,81.1,30.6,129.4c5.8,56.7,14.9,88.1,46.1,91.3c31.8,3.3,42.1-10.1,59.7-43.8
		c13-24.9,18.7-55.5,24.1-85.1c1.8-9.5,3.6-19.2,5.6-28.7c8.4-39.2,18.5-80.4,35.8-115.6c13.6-27.8,37.4-51.1,67-65.5
		c29.6-14.4,62.6-18.9,92.9-12.5l-4.1,19.6c-53.3-11.2-113.9,18.4-137.8,67.3c-16.3,33.3-26.1,73-34.2,111c-2,9.2-3.8,18.9-5.5,28.2
		c-5.8,31.1-11.7,63.2-26.1,90.8c-8.6,16.4-17.3,31.9-29.6,42C3594.9,816,3582.3,820.2,3566.4,820.2z"/>
	<path class="st0" d="M3815.2,471.3c-22,0-44.5-5.2-65.3-15.4c-29.6-14.5-53.4-37.7-67-65.5c-17.3-35.3-27.4-76.4-35.8-115.6
		c-2-9.5-3.8-19.3-5.6-28.7c-5.5-29.6-11.1-60.3-24.1-85.1c-17.6-33.7-27.9-47.1-59.7-43.8c-31.2,3.2-40.3,34.6-46.1,91.3
		c-5,48.3-10.7,91.4-30.6,129.4c-9.1,17.5-25.8,43.5-45.1,64.1c-24,25.7-44.6,34.8-61.1,26.9c-35.3-16.8-90.5-91.1-101.3-128.8
		c-21.2-74.1-47.5-100.5-65-100.5c0,0,0,0,0,0c-20.1,0-40.8,31.6-56.7,86.7c-6.9,23.8-18.8,43.2-30.3,61.9
		c-5.8,9.4-11.8,19.1-17.2,29.5c-19,36.4-58.3,66.3-96.8,53c-31.8-11-43-42.1-53.7-72.2c-5.4-15.3-11.1-31-19.3-43.4
		c-2.4-3.5-4.9-7.5-7.5-11.7c-14.5-22.9-36.3-57.2-56.8-57.2c-0.4,0-0.8,0-1.1,0c-21.3,1.4-52,40.9-70.2,77.5
		c-5.9,11.9-8.8,25.1-11.8,39.1c-2,9.2-4.1,18.8-7.1,28.1c-8.1,24.7-27.2,51.9-56.7,54.1c-1.4,0.1-2.7,0.1-4,0.1
		c-32.3,0-52.3-29.6-70-55.9c-20.5-30.4-34.5-48.6-55.9-45.3c-19.5,3-29.7,24.4-40.4,47c-11.4,24.1-24.4,51.4-52,58.9
		c-14.2,3.8-35.9,3.4-58.3-20.4c-16-16.9-26.7-39.5-32.8-55.5l-51.8-133.9c-3.2-8.2-10.5-11.2-16.3-11.2c0,0,0,0,0,0
		c-5.8,0-13.1,2.9-16.3,11.1l-51.4,131.9c-21.9,56.3-54.5,84.2-89.3,76.4c-27.9-6.2-42.1-32.5-54.7-55.7
		c-11.7-21.5-22.7-41.9-42.1-45.3c-20.5-3.6-40.1,15-51.6,33.6c-3.6,5.8-6.8,11.7-10.3,18c-9.4,17.2-19.1,35-35.4,47.9
		c-14.5,11.5-36,15.8-53.6,10.9c-13.4-3.7-23.2-12.4-27.6-24.3l18.7-7c2.8,7.4,9.3,10.6,14.2,12c11.5,3.2,26.3,0.2,35.8-7.3
		c13.1-10.3,21.4-25.6,30.2-41.8c3.4-6.3,7-12.8,10.8-19c5.7-9.3,15.5-22.3,29.3-31.9c13.8-9.6,28.6-13.3,42.8-10.9
		c28.9,5,43.4,31.8,56.2,55.4c11.6,21.3,22.5,41.5,41.5,45.7c34.3,7.6,57.8-42.4,66.3-64.2l51.4-131.9c5.7-14.5,19.4-23.9,34.9-23.9
		c0,0,0,0,0.1,0c15.6,0,29.3,9.4,34.9,24l51.8,133.9c6.7,17.4,31.5,73.4,67.2,63.7c18.8-5.1,28.7-26,39.2-48.2
		c11.9-25.1,25.4-53.6,55.4-58.2c35.4-5.5,56.7,26.1,75.5,53.9c16.9,25.1,32.9,48.8,55.9,47c19.7-1.5,33.4-22.7,39.2-40.4
		c2.7-8.4,4.6-17,6.6-26.2c3.2-14.6,6.4-29.6,13.4-43.7c4.3-8.8,43.7-85.8,86.8-88.5c0.8-0.1,1.6-0.1,2.4-0.1
		c31.4,0,55.7,38.3,73.6,66.5c2.6,4.1,5.1,8,7.3,11.3c9.6,14.4,15.6,31.4,21.5,47.7c10,28,18.7,52.2,41.4,60.1
		c27.4,9.5,57.8-15.2,72.5-43.3c5.7-11,11.9-21,17.8-30.7c11.3-18.4,22-35.8,28.1-57c9.4-32.4,20.4-57.4,32.8-74.3
		c13-17.8,27.5-26.8,43.1-26.8c0,0,0,0,0.1,0c33,0,62.9,40.9,84.2,115c4.4,15.4,19.3,41,37.8,65.2c19.6,25.6,39.4,44.7,52.9,51.1
		c5.6,2.7,18.6-1.8,37.9-22.5c18-19.2,33.9-44.2,42-59.8c18.3-34.8,23.7-75.9,28.4-122.1c3-29.2,6.7-52.5,14.7-70.9
		c10.1-23.1,26.7-35.9,49.3-38.2c21.1-2.2,36.9,1.8,49.9,12.4c12.3,10.1,21,25.7,29.6,42c14.4,27.5,20.3,59.7,26.1,90.8
		c1.7,9.3,3.5,19,5.5,28.2c8.1,38,17.8,77.7,34.2,111c24,48.9,84.5,78.5,137.8,67.3l4.1,19.6
		C3833.8,470.4,3824.5,471.3,3815.2,471.3z"/>
</g>
<g>
	<path class="st0" d="M1922.4,429.9c9,24.1,45.4,25,65.6,9c20.2-16,29.8-41.5,43.3-63.4c13.6-21.9,36.5-42.6,61.9-38.2
		c47.8,8.4,49.9,90.5,97.2,101c37.4,8.3,63.9-34.7,77.8-70.3c17.1-44,34.3-88,51.4-131.9c9.1-23.4,42.2-23.4,51.3,0.1l51.8,133.9
		c14,36.1,41.8,79.9,79.2,69.8c47.4-12.8,44.9-98.6,93.5-106.1c57.8-8.9,72.4,105.4,130.7,101c23.8-1.8,40.6-24.6,47.9-47.3
		c7.4-22.6,8.9-47.3,19.5-68.6c13.7-27.7,47.7-81,78.5-83s57.3,47.6,74.4,73.3c24.9,37.4,25.5,97,68,111.7
		c33.5,11.6,68.2-16.7,84.6-48.1c16.4-31.4,36.9-55.5,46.7-89.5c40.2-138.7,104-115,140.9,13.9c10,34.8,63.3,107,96,122.6
		c27.2,12.9,73.8-50,93-86.7c19.9-37.9,25.1-83.2,29.5-125.7c5.3-51.8,13.5-95.9,55.1-100.2c38.6-4,51.6,14.8,69.5,49.1
		c17.9,34.4,22.2,76.9,30.6,116.4c8.1,37.9,17.9,78.5,35,113.3c26.2,53.4,90.7,84.9,148.9,72.7"/>
	<path class="st0" d="M1922.4,432.9c9,21.6,45.4,22.4,65.6,8.1c20.2-14.3,29.8-37.1,43.3-56.7c13.6-19.6,36.5-38.1,61.9-34.1
		c47.8,7.5,49.9,81,97.2,90.4c37.4,7.4,63.9-31,77.8-62.9c17.1-39.4,34.3-78.7,51.4-118.1c9.1-20.9,42.2-20.9,51.3,0l51.8,119.8
		c14,32.3,41.8,71.5,79.2,62.4c47.4-11.5,44.9-88.3,93.5-95c57.8-8,72.4,94.3,130.7,90.4c23.8-1.6,40.6-22,47.9-42.3
		c7.4-20.3,8.9-42.3,19.5-61.4c13.7-24.8,47.7-72.5,78.5-74.3s57.3,42.6,74.4,65.6c24.9,33.5,25.5,86.8,68,100
		c33.5,10.4,68.2-15,84.6-43.1c16.4-28.1,36.9-49.6,46.7-80.1c40.2-124.1,104-102.9,140.9,12.4c10,31.1,63.3,95.7,96,109.6
		c27.2,11.6,73.8-44.7,93-77.6c19.9-33.9,25.1-74.4,29.5-112.5c5.3-46.3,13.5-85.8,55.1-89.6c38.6-3.5,51.6,13.2,69.5,44
		c17.9,30.7,22.2,68.8,30.6,104.2c8.1,33.9,17.9,70.2,35,101.4c26.2,47.8,90.7,76,148.9,65"/>
	<path class="st0" d="M1922.4,435.9c9,19.1,45.4,19.7,65.6,7.1c20.2-12.6,29.8-32.7,43.3-50c13.6-17.3,36.5-33.6,61.9-30.1
		c47.8,6.6,49.9,71.5,97.2,79.8c37.4,6.5,63.9-27.4,77.8-55.5c17.1-34.7,34.3-69.4,51.4-104.2c9.1-18.5,42.2-18.4,51.3,0l51.8,105.7
		c14,28.5,41.8,63.1,79.2,55.1c47.4-10.1,44.9-77.9,93.5-83.8c57.8-7,72.4,83.2,130.7,79.8c23.8-1.4,40.6-19.4,47.9-37.3
		c7.4-17.9,8.9-37.3,19.5-54.2c13.7-21.8,47.7-64,78.5-65.5c30.8-1.5,57.3,37.6,74.4,57.9c24.9,29.5,25.5,76.6,68,88.2
		c33.5,9.1,68.2-13.2,84.6-38c16.4-24.8,36.9-43.8,46.7-70.6c40.2-109.5,104-90.8,140.9,11c10,27.5,63.3,84.5,96,96.8
		c27.2,10.2,73.8-39.5,93-68.4c19.9-29.9,25.1-65.7,29.5-99.3c5.3-40.8,13.5-75.7,55.1-79.1c38.6-3.1,51.6,11.7,69.5,38.8
		c17.9,27.1,22.2,60.7,30.6,91.9c8.1,29.9,17.9,62,35,89.5c26.2,42.1,90.7,67,148.9,57.4"/>
	<path class="st0" d="M1922.4,438.9c9,16.5,45.4,17.1,65.6,6.2c20.2-10.9,29.8-28.4,43.3-43.4c13.6-15,36.5-29.1,61.9-26.1
		c47.8,5.7,49.9,61.9,97.2,69.1c37.4,5.7,63.9-23.7,77.8-48.1c17.1-30.1,34.3-60.2,51.4-90.3c9.1-16,42.2-16,51.3,0l51.8,91.6
		c14,24.7,41.8,54.6,79.2,47.7c47.4-8.8,44.9-67.5,93.5-72.6c57.8-6.1,72.4,72.1,130.7,69.1c23.8-1.2,40.6-16.8,47.9-32.3
		c7.4-15.5,8.9-32.3,19.5-46.9c13.7-18.9,47.7-55.5,78.5-56.8s57.3,32.6,74.4,50.1c24.9,25.6,25.5,66.4,68,76.4
		c33.5,7.9,68.2-11.5,84.6-32.9c16.4-21.5,36.9-38,46.7-61.2c40.2-94.9,104-78.7,140.9,9.5c10,23.8,63.3,73.2,96,83.9
		c27.2,8.8,73.8-34.2,93-59.3c19.9-25.9,25.1-56.9,29.5-86c5.3-35.4,13.5-65.6,55.1-68.6c38.6-2.7,51.6,10.1,69.5,33.6
		c17.9,23.5,22.2,52.6,30.6,79.7c8.1,25.9,17.9,53.7,35,77.5c26.2,36.5,90.7,58.1,148.9,49.7"/>
	<path class="st0" d="M1922.4,441.9c9,14,45.4,14.5,65.6,5.2c20.2-9.3,29.8-24,43.3-36.7c13.6-12.7,36.5-24.7,61.9-22.1
		c47.8,4.8,49.9,52.4,97.2,58.5c37.4,4.8,63.9-20.1,77.8-40.7c17.1-25.5,34.3-50.9,51.4-76.4c9.1-13.5,42.2-13.5,51.3,0l51.8,77.5
		c14,20.9,41.8,46.2,79.2,40.4c47.4-7.4,44.9-57.1,93.5-61.4c57.8-5.2,72.4,61,130.7,58.5c23.8-1,40.6-14.2,47.9-27.4
		c7.4-13.1,8.9-27.4,19.5-39.7c13.7-16,47.7-46.9,78.5-48s57.3,27.5,74.4,42.4c24.9,21.7,25.5,56.2,68,64.7
		c33.5,6.7,68.2-9.7,84.6-27.9c16.4-18.2,36.9-32.1,46.7-51.8c40.2-80.3,104-66.6,140.9,8c10,20.1,63.3,61.9,96,71
		c27.2,7.5,73.8-28.9,93-50.2c19.9-21.9,25.1-48.2,29.5-72.8c5.3-30,13.5-55.5,55.1-58c38.6-2.3,51.6,8.6,69.5,28.4
		c17.9,19.9,22.2,44.5,30.6,67.4c8.1,22,17.9,45.5,35,65.6c26.2,30.9,90.7,49.1,148.9,42.1"/>
	<path class="st0" d="M1922.4,444.9c9,11.4,45.4,11.8,65.6,4.3c20.2-7.6,29.8-19.6,43.3-30c13.6-10.4,36.5-20.2,61.9-18.1
		c47.8,4,49.9,42.9,97.2,47.9c37.4,3.9,63.9-16.4,77.8-33.3c17.1-20.8,34.3-41.7,51.4-62.5c9.1-11.1,42.2-11.1,51.3,0l51.8,63.4
		c14,17.1,41.8,37.8,79.2,33c47.4-6.1,44.9-46.7,93.5-50.3c57.8-4.2,72.4,49.9,130.7,47.9c23.8-0.8,40.6-11.6,47.9-22.4
		c7.4-10.7,8.9-22.4,19.5-32.5c13.7-13.1,47.7-38.4,78.5-39.3s57.3,22.5,74.4,34.7c24.9,17.7,25.5,46,68,52.9
		c33.5,5.5,68.2-7.9,84.6-22.8c16.4-14.9,36.9-26.3,46.7-42.4c40.2-65.7,104-54.5,140.9,6.6c10,16.5,63.3,50.7,96,58
		c27.2,6.1,73.8-23.7,93-41.1c19.9-18,25.1-39.4,29.5-59.6c5.3-24.5,13.5-45.4,55.1-47.5c38.6-1.9,51.6,7,69.5,23.3
		c17.9,16.3,22.2,36.4,30.6,55.1c8.1,18,17.9,37.2,35,53.7c26.2,25.3,90.7,40.2,148.9,34.4"/>
	<path class="st0" d="M1922.4,447.9c9,8.9,45.4,9.2,65.6,3.3c20.2-5.9,29.8-15.3,43.3-23.4c13.6-8.1,36.5-15.7,61.9-14.1
		c47.8,3.1,49.9,33.4,97.2,37.2c37.4,3,63.9-12.8,77.8-25.9c17.1-16.2,34.3-32.4,51.4-48.6c9.1-8.6,42.2-8.6,51.3,0l51.8,49.3
		c14,13.3,41.8,29.4,79.2,25.7c47.4-4.7,44.9-36.3,93.5-39.1c57.8-3.3,72.4,38.8,130.7,37.2c23.8-0.6,40.6-9.1,47.9-17.4
		c7.4-8.3,8.9-17.4,19.5-25.3c13.7-10.2,47.7-29.9,78.5-30.6c30.8-0.7,57.3,17.5,74.4,27c24.9,13.8,25.5,35.7,68,41.2
		c33.5,4.3,68.2-6.2,84.6-17.7c16.4-11.6,36.9-20.4,46.7-33c40.2-51.1,104-42.4,140.9,5.1c10,12.8,63.3,39.4,96,45.1
		c27.2,4.8,73.8-18.4,93-31.9c19.9-14,25.1-30.6,29.5-46.3c5.3-19.1,13.5-35.4,55.1-36.9c38.6-1.5,51.6,5.5,69.5,18.1
		c17.9,12.6,22.2,28.3,30.6,42.9c8.1,14,17.9,28.9,35,41.8c26.2,19.7,90.7,31.3,148.9,26.8"/>
	<path class="st0" d="M1922.4,450.9c9,6.4,45.4,6.6,65.6,2.4c20.2-4.2,29.8-10.9,43.3-16.7c13.6-5.8,36.5-11.2,61.9-10
		c47.8,2.2,49.9,23.8,97.2,26.6c37.4,2.2,63.9-9.1,77.8-18.5c17.1-11.6,34.3-23.1,51.4-34.7c9.1-6.1,42.2-6.1,51.3,0l51.8,35.2
		c14,9.5,41.8,21,79.2,18.4c47.4-3.4,44.9-26,93.5-27.9c57.8-2.3,72.4,27.7,130.7,26.6c23.8-0.5,40.6-6.5,47.9-12.4
		c7.4-6,8.9-12.4,19.5-18c13.7-7.3,47.7-21.3,78.5-21.8s57.3,12.5,74.4,19.3c24.9,9.9,25.5,25.5,68,29.4c33.5,3,68.2-4.4,84.6-12.7
		c16.4-8.3,36.9-14.6,46.7-23.5c40.2-36.5,104-30.3,140.9,3.6c10,9.2,63.3,28.2,96,32.3c27.2,3.4,73.8-13.1,93-22.8
		c19.9-10,25.1-21.9,29.5-33.1c5.3-13.6,13.5-25.3,55.1-26.4c38.6-1,51.6,3.9,69.5,12.9c17.9,9,22.2,20.3,30.6,30.6
		c8.1,10,17.9,20.7,35,29.8c26.2,14,90.7,22.3,148.9,19.1"/>
	<path class="st0" d="M1922.4,453.9c9,3.8,45.4,4,65.6,1.4c20.2-2.5,29.8-6.5,43.3-10c13.6-3.5,36.5-6.7,61.9-6
		c47.8,1.3,49.9,14.3,97.2,16c37.4,1.3,63.9-5.5,77.8-11.1c17.1-6.9,34.3-13.9,51.4-20.8c9.1-3.7,42.2-3.7,51.3,0l51.8,21.1
		c14,5.7,41.8,12.6,79.2,11c47.4-2,44.9-15.6,93.5-16.8c57.8-1.4,72.4,16.6,130.7,16c23.8-0.3,40.6-3.9,47.9-7.5
		c7.4-3.6,8.9-7.5,19.5-10.8c13.7-4.4,47.7-12.8,78.5-13.1s57.3,7.5,74.4,11.6c24.9,5.9,25.5,15.3,68,17.6
		c33.5,1.8,68.2-2.6,84.6-7.6c16.4-5,36.9-8.8,46.7-14.1c40.2-21.9,104-18.2,140.9,2.2c10,5.5,63.3,16.9,96,19.4
		c27.2,2,73.8-7.9,93-13.7c19.9-6,25.1-13.1,29.5-19.9c5.3-8.2,13.5-15.1,55.1-15.8c38.6-0.6,51.6,2.3,69.5,7.8
		c17.9,5.4,22.2,12.1,30.6,18.4c8.1,6,17.9,12.4,35,17.9c26.2,8.4,90.7,13.4,148.9,11.5"/>
	<path class="st0" d="M1922.4,456.9c9,1.3,45.4,1.3,65.6,0.5c20.2-0.9,29.8-2.2,43.3-3.3c13.6-1.2,36.5-2.2,61.9-2
		c47.8,0.4,49.9,4.8,97.2,5.3c37.4,0.4,63.9-1.8,77.8-3.7c17.1-2.3,34.3-4.6,51.4-6.9c9.1-1.2,42.2-1.2,51.3,0l51.8,7
		c14,1.9,41.8,4.2,79.2,3.7c47.4-0.7,44.9-5.2,93.5-5.6c57.8-0.5,72.4,5.5,130.7,5.3c23.8-0.1,40.6-1.3,47.9-2.5
		c7.4-1.2,8.9-2.5,19.5-3.6c13.7-1.5,47.7-4.3,78.5-4.4s57.3,2.5,74.4,3.9c24.9,2,25.5,5.1,68,5.9c33.5,0.6,68.2-0.9,84.6-2.5
		c16.4-1.6,36.9-2.9,46.7-4.7c40.2-7.3,104-6,140.9,0.7c10,1.8,63.3,5.6,96,6.5c27.2,0.7,73.8-2.6,93-4.6c19.9-2,25.1-4.4,29.5-6.6
		c5.3-2.7,13.5-5,55.1-5.3c38.6-0.2,51.6,0.8,69.5,2.6c17.9,1.8,22.2,4,30.6,6.1c8.1,2,17.9,4.1,35,6c26.2,2.8,90.7,4.5,148.9,3.8"
		/>
	<path class="st0" d="M1922.4,459.9c9-1.3,45.4-1.3,65.6-0.5c20.2,0.8,29.8,2.2,43.3,3.3c13.6,1.1,36.5,2.2,61.9,2
		c47.8-0.4,49.9-4.8,97.2-5.3c37.4-0.4,63.9,1.8,77.8,3.7c17.1,2.3,34.3,4.6,51.4,6.9c9.1,1.2,42.2,1.2,51.3,0l51.8-7
		c14-1.9,41.8-4.2,79.2-3.7c47.4,0.7,44.9,5.2,93.5,5.6c57.8,0.5,72.4-5.5,130.7-5.3c23.8,0.1,40.6,1.3,47.9,2.5
		c7.4,1.2,8.9,2.5,19.5,3.6c13.7,1.5,47.7,4.3,78.5,4.4s57.3-2.5,74.4-3.9c24.9-2,25.5-5.1,68-5.9c33.5-0.6,68.2,0.9,84.6,2.5
		c16.4,1.6,36.9,2.9,46.7,4.7c40.2,7.3,104,6,140.9-0.7c10-1.8,63.3-5.6,96-6.5c27.2-0.7,73.8,2.6,93,4.6c19.9,2,25.1,4.4,29.5,6.6
		c5.3,2.7,13.5,5,55.1,5.3c38.6,0.2,51.6-0.8,69.5-2.6c17.9-1.8,22.2-4,30.6-6.1c8.1-2,17.9-4.1,35-6c26.2-2.8,90.7-4.5,148.9-3.8"
		/>
	<path class="st0" d="M1922.4,462.9c9-3.8,45.4-4,65.6-1.4c20.2,2.5,29.8,6.5,43.3,10c13.6,3.5,36.5,6.7,61.9,6
		c47.8-1.3,49.9-14.3,97.2-16c37.4-1.3,63.9,5.5,77.8,11.1c17.1,6.9,34.3,13.9,51.4,20.8c9.1,3.7,42.2,3.7,51.3,0l51.8-21.1
		c14-5.7,41.8-12.6,79.2-11c47.4,2,44.9,15.6,93.5,16.8c57.8,1.4,72.4-16.6,130.7-16c23.8,0.3,40.6,3.9,47.9,7.5
		c7.4,3.6,8.9,7.5,19.5,10.8c13.7,4.4,47.7,12.8,78.5,13.1s57.3-7.5,74.4-11.6c24.9-5.9,25.5-15.3,68-17.6
		c33.5-1.8,68.2,2.6,84.6,7.6c16.4,5,36.9,8.8,46.7,14.1c40.2,21.9,104,18.2,140.9-2.2c10-5.5,63.3-16.9,96-19.4
		c27.2-2,73.8,7.9,93,13.7c19.9,6,25.1,13.1,29.5,19.9c5.3,8.2,13.5,15.2,55.1,15.8c38.6,0.6,51.6-2.3,69.5-7.8
		c17.9-5.4,22.2-12.1,30.6-18.4c8.1-6,17.9-12.4,35-17.9c26.2-8.4,90.7-13.4,148.9-11.5"/>
	<path class="st0" d="M1922.4,465.9c9-6.4,45.4-6.6,65.6-2.4c20.2,4.2,29.8,10.9,43.3,16.7c13.6,5.8,36.5,11.2,61.9,10
		c47.8-2.2,49.9-23.8,97.2-26.6c37.4-2.2,63.9,9.1,77.8,18.5c17.1,11.6,34.3,23.1,51.4,34.7c9.1,6.2,42.2,6.1,51.3,0l51.8-35.2
		c14-9.5,41.8-21,79.2-18.4c47.4,3.4,44.9,26,93.5,27.9c57.8,2.3,72.4-27.7,130.7-26.6c23.8,0.5,40.6,6.5,47.9,12.4
		c7.4,6,8.9,12.4,19.5,18c13.7,7.3,47.7,21.3,78.5,21.8s57.3-12.5,74.4-19.3c24.9-9.9,25.5-25.5,68-29.4c33.5-3,68.2,4.4,84.6,12.7
		c16.4,8.3,36.9,14.6,46.7,23.5c40.2,36.5,104,30.3,140.9-3.6c10-9.2,63.3-28.2,96-32.3c27.2-3.4,73.8,13.1,93,22.8
		c19.9,10,25.1,21.9,29.5,33.1c5.3,13.6,13.5,25.3,55.1,26.4c38.6,1,51.6-3.9,69.5-12.9c17.9-9,22.2-20.3,30.6-30.6
		c8.1-10,17.9-20.7,35-29.8c26.2-14,90.7-22.3,148.9-19.1"/>
	<path class="st0" d="M1922.4,468.9c9-8.9,45.4-9.2,65.6-3.3c20.2,5.9,29.8,15.3,43.3,23.4c13.6,8.1,36.5,15.7,61.9,14.1
		c47.8-3.1,49.9-33.4,97.2-37.2c37.4-3,63.9,12.8,77.8,25.9c17.1,16.2,34.3,32.4,51.4,48.6c9.1,8.6,42.2,8.6,51.3,0l51.8-49.3
		c14-13.3,41.8-29.4,79.2-25.7c47.4,4.7,44.9,36.3,93.5,39.1c57.8,3.3,72.4-38.8,130.7-37.2c23.8,0.6,40.6,9.1,47.9,17.4
		c7.4,8.3,8.9,17.4,19.5,25.3c13.7,10.2,47.7,29.9,78.5,30.6s57.3-17.5,74.4-27c24.9-13.8,25.5-35.7,68-41.2
		c33.5-4.3,68.2,6.2,84.6,17.7c16.4,11.6,36.9,20.4,46.7,33c40.2,51.1,104,42.4,140.9-5.1c10-12.8,63.3-39.4,96-45.2
		c27.2-4.8,73.8,18.4,93,31.9c19.9,14,25.1,30.7,29.5,46.3c5.3,19.1,13.5,35.3,55.1,36.9c38.6,1.5,51.6-5.5,69.5-18.1
		c17.9-12.6,22.2-28.3,30.6-42.9c8.1-14,17.9-28.9,35-41.8c26.2-19.7,90.7-31.3,148.9-26.8"/>
	<path class="st0" d="M1922.4,471.9c9-11.4,45.4-11.8,65.6-4.3c20.2,7.6,29.8,19.6,43.3,30c13.6,10.4,36.5,20.2,61.9,18.1
		c47.8-4,49.9-42.9,97.2-47.9c37.4-3.9,63.9,16.4,77.8,33.3c17.1,20.8,34.3,41.7,51.4,62.5c9.1,11.1,42.2,11.1,51.3,0l51.8-63.4
		c14-17.1,41.8-37.8,79.2-33c47.4,6.1,44.9,46.7,93.5,50.3c57.8,4.2,72.4-49.9,130.7-47.9c23.8,0.8,40.6,11.6,47.9,22.4
		c7.4,10.7,8.9,22.4,19.5,32.5c13.7,13.1,47.7,38.4,78.5,39.3s57.3-22.5,74.4-34.7c24.9-17.7,25.5-46,68-52.9
		c33.5-5.5,68.2,7.9,84.6,22.8c16.4,14.9,36.9,26.3,46.7,42.4c40.2,65.7,104,54.5,140.9-6.6c10-16.5,63.3-50.7,96-58.1
		c27.2-6.1,73.8,23.7,93,41.1c19.9,18,25.1,39.4,29.5,59.6c5.3,24.5,13.5,45.4,55.1,47.5c38.6,1.9,51.6-7,69.5-23.3
		c17.9-16.3,22.2-36.4,30.6-55.2c8.1-18,17.9-37.2,35-53.7c26.2-25.3,90.7-40.2,148.9-34.4"/>
	<path class="st0" d="M1922.4,474.9c9-14,45.4-14.5,65.6-5.2c20.2,9.3,29.8,24,43.3,36.7c13.6,12.7,36.5,24.7,61.9,22.1
		c47.8-4.8,49.9-52.4,97.2-58.5c37.4-4.8,63.9,20.1,77.8,40.7c17.1,25.5,34.3,50.9,51.4,76.4c9.1,13.5,42.2,13.5,51.3,0l51.8-77.5
		c14-20.9,41.8-46.2,79.2-40.4c47.4,7.4,44.9,57.1,93.5,61.4c57.8,5.2,72.4-61,130.7-58.5c23.8,1,40.6,14.2,47.9,27.4
		c7.4,13.1,8.9,27.4,19.5,39.7c13.7,16,47.7,46.9,78.5,48s57.3-27.5,74.4-42.4c24.9-21.7,25.5-56.2,68-64.7
		c33.5-6.7,68.2,9.7,84.6,27.9c16.4,18.2,36.9,32.1,46.7,51.8c40.2,80.3,104,66.6,140.9-8c10-20.2,63.3-61.9,96-71
		c27.2-7.5,73.8,28.9,93,50.2c19.9,21.9,25.1,48.2,29.5,72.8c5.3,30,13.5,55.5,55.1,58c38.6,2.3,51.6-8.6,69.5-28.5
		c17.9-19.9,22.2-44.5,30.6-67.4c8.1-22,17.9-45.5,35-65.6c26.2-30.9,90.7-49.1,148.9-42.1"/>
	<path class="st0" d="M1922.4,477.9c9-16.5,45.4-17.1,65.6-6.2c20.2,10.9,29.8,28.4,43.3,43.4c13.6,15,36.5,29.2,61.9,26.1
		c47.8-5.7,49.9-61.9,97.2-69.1c37.4-5.7,63.9,23.7,77.8,48.1c17.1,30.1,34.3,60.2,51.4,90.3c9.1,16,42.2,16,51.3,0l51.8-91.6
		c14-24.7,41.8-54.7,79.2-47.7c47.4,8.8,44.9,67.5,93.5,72.6c57.8,6.1,72.4-72.1,130.7-69.1c23.8,1.2,40.6,16.8,47.9,32.3
		c7.4,15.5,8.9,32.3,19.5,46.9c13.7,18.9,47.7,55.5,78.5,56.8c30.8,1.3,57.3-32.6,74.4-50.2c24.9-25.6,25.5-66.4,68-76.4
		c33.5-7.9,68.2,11.5,84.6,32.9c16.4,21.5,36.9,38,46.7,61.2c40.2,94.9,104,78.7,140.9-9.5c10-23.8,63.3-73.2,96-83.9
		c27.2-8.8,73.8,34.2,93,59.3c19.9,25.9,25.1,56.9,29.5,86c5.3,35.4,13.5,65.6,55.1,68.6c38.6,2.7,51.6-10.1,69.5-33.6
		c17.9-23.5,22.2-52.6,30.6-79.7c8.1-25.9,17.9-53.7,35-77.5c26.2-36.5,90.7-58.1,148.9-49.7"/>
	<path class="st0" d="M1922.4,480.9c9-19.1,45.4-19.7,65.6-7.1c20.2,12.6,29.8,32.7,43.3,50c13.6,17.3,36.5,33.6,61.9,30.1
		c47.8-6.6,49.9-71.5,97.2-79.8c37.4-6.5,63.9,27.4,77.8,55.5c17.1,34.7,34.3,69.4,51.4,104.2c9.1,18.5,42.2,18.4,51.3,0l51.8-105.7
		c14-28.5,41.8-63.1,79.2-55.1c47.4,10.1,44.9,77.9,93.5,83.8c57.8,7,72.4-83.2,130.7-79.8c23.8,1.4,40.6,19.4,47.9,37.3
		c7.4,17.9,8.9,37.3,19.5,54.2c13.7,21.8,47.7,64,78.5,65.5c30.8,1.5,57.3-37.6,74.4-57.9c24.9-29.5,25.5-76.6,68-88.2
		c33.5-9.1,68.2,13.2,84.6,38c16.4,24.8,36.9,43.8,46.7,70.7c40.2,109.5,104,90.8,140.9-11c10-27.5,63.3-84.5,96-96.8
		c27.2-10.2,73.8,39.5,93,68.4c19.9,29.9,25.1,65.7,29.5,99.3c5.3,40.8,13.5,75.7,55.1,79.1c38.6,3.1,51.6-11.7,69.5-38.8
		c17.9-27.1,22.2-60.7,30.6-91.9c8.1-29.9,17.9-62,35-89.5c26.2-42.2,90.7-67,148.9-57.4"/>
	<path class="st0" d="M1922.4,483.9c9-21.6,45.4-22.4,65.6-8.1c20.2,14.3,29.8,37.1,43.3,56.7c13.6,19.6,36.5,38.1,61.9,34.2
		c47.8-7.5,49.9-81,97.2-90.4c37.4-7.4,63.9,31,77.8,62.9c17.1,39.3,34.3,78.7,51.4,118.1c9.1,20.9,42.2,20.9,51.3,0l51.8-119.8
		c14-32.3,41.8-71.5,79.2-62.4c47.4,11.5,44.9,88.3,93.5,95c57.8,8,72.4-94.3,130.7-90.4c23.8,1.6,40.6,22,47.9,42.3
		c7.4,20.3,8.9,42.3,19.5,61.4c13.7,24.8,47.7,72.5,78.5,74.3s57.3-42.6,74.4-65.6c24.9-33.5,25.5-86.8,68-100
		c33.5-10.4,68.2,15,84.6,43.1c16.4,28.1,36.9,49.6,46.7,80.1c40.2,124.1,104,102.9,140.9-12.4c10-31.2,63.3-95.7,96-109.7
		c27.2-11.6,73.8,44.7,93,77.6c19.9,33.9,25.1,74.4,29.5,112.5c5.3,46.3,13.5,85.8,55.1,89.7c38.6,3.5,51.6-13.2,69.5-44
		c17.9-30.7,22.2-68.8,30.6-104.2c8.1-33.9,17.9-70.2,35-101.4c26.2-47.8,90.7-76,148.9-65"/>
	<path class="st0" d="M1922.4,486.9c9-24.1,45.4-25,65.6-9c20.2,16,29.8,41.5,43.3,63.4c13.6,21.9,36.5,42.6,61.9,38.2
		c47.8-8.3,49.9-90.5,97.2-101c37.4-8.3,63.9,34.7,77.8,70.3c17.1,44,34.3,88,51.4,131.9c9.1,23.4,42.2,23.3,51.3-0.1l51.8-133.9
		c14-36.1,41.8-79.9,79.2-69.8c47.4,12.8,44.9,98.6,93.5,106.1c57.8,8.9,72.4-105.4,130.7-101c23.8,1.8,40.6,24.6,47.9,47.3
		c7.4,22.7,8.9,47.3,19.5,68.6c13.7,27.7,47.7,81,78.5,83s57.3-47.6,74.4-73.3c24.9-37.4,25.5-97,68-111.7
		c33.5-11.6,68.2,16.7,84.6,48.1c16.4,31.4,36.9,55.5,46.7,89.5c40.2,138.7,104,115,140.9-13.9c10-34.8,63.3-107,96-122.6
		c27.2-12.9,73.8,50,93,86.7c19.9,37.9,25.1,83.2,29.5,125.7c5.3,51.8,13.5,95.9,55.1,100.2c38.6,4,51.6-14.8,69.5-49.1
		c17.9-34.3,22.2-76.9,30.6-116.4c8.1-37.9,17.9-78.5,35-113.3c26.2-53.4,90.7-84.9,148.9-72.7"/>
</g>
</svg>
