<svg xmlns="http://www.w3.org/2000/svg" xmlns:xlink="http://www.w3.org/1999/xlink" id="Слой_1" x="0px" y="0px" viewBox="0 0 1920 1080" style="enable-background:new 0 0 1920 1080;" xml:space="preserve"> <style type="text/css"> .st0{fill:none;stroke:#595959;stroke-miterlimit:10;} </style> <g> <path class="st0" d="M-238.1,445.97c128.58-0.52,188.03-304.12,316.38-316.05c87.29-8.11,150.19,122.15,222.77,198.85 c106.87,112.95,258.98,107.01,362.16-14.14c63.75-74.86,113.43-191.05,191.22-217.34c86.78-29.32,168.96,65.77,236.04,157.19 s145.02,191.43,233.08,173.85c128.03-25.57,197.09-284.27,325.02-311.15c89.37-18.78,168.07,82.64,245.93,154.16 c145.67,133.81,325.38,172.79,488.65,105.97"></path> <path class="st0" d="M-237.72,450.76c128.58-0.44,188.03-257.33,316.38-267.43c87.29-6.87,150.19,103.36,222.77,168.26 c106.87,95.57,258.98,90.54,362.16-11.97c63.75-63.35,113.43-161.66,191.22-183.9c86.78-24.81,168.96,55.66,236.04,133.01 s145.02,161.98,233.08,147.1c128.03-21.63,197.09-240.53,325.02-263.28c89.37-15.89,168.07,69.93,245.93,130.45 c145.67,113.23,325.38,146.2,488.65,89.67"></path> <path class="st0" d="M-237.34,455.54C-108.76,455.18-49.31,245,79.04,236.74c87.29-5.62,150.19,84.57,222.77,137.67 c106.87,78.19,258.98,74.08,362.16-9.79c63.75-51.83,113.43-132.27,191.22-150.46c86.78-20.3,168.96,45.54,236.04,108.83 s145.02,132.53,233.08,120.36c128.03-17.7,197.09-196.8,325.02-215.41c89.37-13,168.07,57.21,245.93,106.73 c145.67,92.64,325.38,119.62,488.65,73.37"></path> <path class="st0" d="M-236.96,460.33c128.58-0.28,188.03-163.76,316.38-170.18c87.29-4.37,150.19,65.77,222.77,107.07 c106.87,60.82,258.98,57.62,362.16-7.62c63.75-40.31,113.43-102.87,191.22-117.03c86.78-15.79,168.96,35.42,236.04,84.64 s145.02,103.08,233.08,93.61c128.03-13.77,197.09-153.07,325.02-167.54c89.37-10.11,168.07,44.5,245.93,83.01 c145.67,72.05,325.38,93.04,488.65,57.06"></path> <path class="st0" d="M-236.58,465.12c128.58-0.2,188.03-116.97,316.38-121.56c87.29-3.12,150.19,46.98,222.77,76.48 c106.87,43.44,258.98,41.16,362.16-5.44c63.75-28.79,113.43-73.48,191.22-83.59c86.78-11.28,168.96,25.3,236.04,60.46 s145.02,73.63,233.08,66.86c128.03-9.83,197.09-109.33,325.02-119.67c89.37-7.22,168.07,31.79,245.93,59.29 c145.67,51.47,325.38,66.46,488.65,40.76"></path> <path class="st0" d="M-236.21,469.9c128.58-0.12,188.03-70.18,316.38-72.94c87.29-1.87,150.19,28.19,222.77,45.89 c106.87,26.06,258.98,24.69,362.16-3.26c63.75-17.28,113.43-44.09,191.22-50.15c86.78-6.77,168.96,15.18,236.04,36.28 c67.08,21.1,145.02,44.18,233.08,40.12c128.03-5.9,197.09-65.6,325.02-71.8c89.37-4.33,168.07,19.07,245.93,35.58 c145.67,30.88,325.38,39.87,488.65,24.46"></path> <path class="st0" d="M-235.83,474.69c128.58-0.04,188.03-23.39,316.38-24.31c87.29-0.62,150.19,9.4,222.77,15.3 c106.87,8.69,258.98,8.23,362.16-1.09c63.75-5.76,113.43-14.7,191.22-16.72c86.78-2.26,168.96,5.06,236.04,12.09 c67.08,7.03,145.02,14.73,233.08,13.37c128.03-1.97,197.09-21.87,325.02-23.93c89.37-1.44,168.07,6.36,245.93,11.86 c145.67,10.29,325.38,13.29,488.65,8.15"></path> <path class="st0" d="M-235.45,479.48c128.58,0.04,188.03,23.39,316.38,24.31c87.29,0.62,150.19-9.4,222.77-15.3 c106.87-8.69,258.98-8.23,362.16,1.09c63.75,5.76,113.43,14.7,191.22,16.72c86.78,2.26,168.96-5.06,236.04-12.09 c67.08-7.03,145.02-14.73,233.08-13.37c128.03,1.97,197.09,21.87,325.02,23.93c89.37,1.44,168.07-6.36,245.93-11.86 c145.67-10.29,325.38-13.29,488.65-8.15"></path> <path class="st0" d="M-235.07,484.27c128.58,0.12,188.03,70.18,316.38,72.94c87.29,1.87,150.19-28.19,222.77-45.89 c106.87-26.06,258.98-24.69,362.16,3.26c63.75,17.28,113.43,44.09,191.22,50.15c86.78,6.77,168.96-15.18,236.04-36.28 c67.08-21.1,145.02-44.18,233.08-40.12c128.03,5.9,197.09,65.6,325.02,71.8c89.37,4.33,168.07-19.07,245.93-35.58 c145.67-30.88,325.38-39.87,488.65-24.46"></path> <path class="st0" d="M-234.69,489.05c128.58,0.2,188.03,116.97,316.38,121.56c87.29,3.12,150.19-46.98,222.77-76.48 c106.87-43.44,258.98-41.16,362.16,5.44c63.75,28.79,113.43,73.48,191.22,83.59c86.78,11.28,168.96-25.3,236.04-60.46 c67.08-35.16,145.02-73.63,233.08-66.86c128.03,9.83,197.09,109.33,325.02,119.67c89.37,7.22,168.07-31.79,245.93-59.29 c145.67-51.47,325.38-66.46,488.65-40.76"></path> <path class="st0" d="M-234.31,493.84c128.58,0.28,188.03,163.76,316.38,170.18c87.29,4.37,150.19-65.77,222.77-107.07 c106.87-60.82,258.98-57.62,362.16,7.62c63.75,40.31,113.43,102.87,191.22,117.03c86.78,15.79,168.96-35.42,236.04-84.64 c67.08-49.23,145.02-103.08,233.08-93.61c128.03,13.77,197.09,153.07,325.02,167.54c89.37,10.11,168.07-44.5,245.93-83.01 c145.67-72.05,325.38-93.04,488.65-57.06"></path> <path class="st0" d="M-233.93,498.63c128.58,0.36,188.03,210.54,316.38,218.81c87.29,5.62,150.19-84.57,222.77-137.67 c106.87-78.19,258.98-74.08,362.16,9.79c63.75,51.83,113.43,132.27,191.22,150.46c86.78,20.3,168.96-45.54,236.04-108.83 c67.08-63.29,145.02-132.53,233.08-120.36c128.03,17.7,197.09,196.8,325.02,215.41c89.37,13,168.07-57.21,245.93-106.73 c145.67-92.64,325.38-119.62,488.65-73.37"></path> <path class="st0" d="M-233.56,503.41c128.58,0.44,188.03,257.33,316.38,267.43c87.29,6.87,150.19-103.36,222.77-168.26 c106.87-95.57,258.98-90.54,362.16,11.97c63.75,63.35,113.43,161.66,191.22,183.9c86.78,24.81,168.96-55.66,236.04-133.01 s145.02-161.98,233.08-147.1c128.03,21.63,197.09,240.53,325.02,263.28c89.37,15.89,168.07-69.93,245.93-130.45 c145.67-113.23,325.38-146.2,488.65-89.67"></path> <path class="st0" d="M-233.18,508.2c128.58,0.52,188.03,304.12,316.38,316.05C170.5,832.37,233.4,702.1,305.98,625.4 c106.87-112.95,258.98-107.01,362.16,14.14c63.75,74.86,113.43,191.05,191.22,217.34c86.78,29.32,168.96-65.77,236.04-157.19 s145.02-191.43,233.08-173.85c128.03,25.57,197.09,284.27,325.02,311.15c89.37,18.78,168.07-82.64,245.93-154.16 c145.67-133.81,325.38-172.79,488.65-105.97"></path> </g> </svg> 