<?xml version="1.0" encoding="UTF-8"?> <!-- Generator: Adobe Illustrator 19.2.1, SVG Export Plug-In . SVG Version: 6.00 Build 0) --> <svg xmlns="http://www.w3.org/2000/svg" xmlns:xlink="http://www.w3.org/1999/xlink" id="Ebene_1" x="0px" y="0px" viewBox="0 0 391.3 148.2" style="enable-background:new 0 0 391.3 148.2;" xml:space="preserve"> <style type="text/css"> .st0{fill:#DDC49E;} .st1{fill:#25315C;} .st2{fill:#D7BD96;} </style> <g> <polygon class="st0" points="0,140.2 0,0 387.3,0 387.3,33.7 376.8,33.7 376.8,10.6 10.6,10.6 10.6,129.6 157.5,129.6 157.5,140.2 "></polygon> <g> <path class="st1" d="M168.9,141.5v-29.7h2.6v11c0.5-0.8,1.2-1.4,1.9-1.8c0.7-0.4,1.4-0.6,2.1-0.6c0.5,0,0.9,0,1.3,0.1 c0.4,0.1,0.8,0.3,1.2,0.7c0.4,0.4,0.8,0.9,1.1,1.6c0.3,0.7,0.5,1.7,0.7,3c0.2,1.3,0.3,2.8,0.3,4.6v1.6c0,1.2,0,2.4-0.1,3.4 s-0.2,1.8-0.4,2.5s-0.4,1.3-0.6,1.8s-0.5,0.9-0.7,1.2s-0.5,0.5-0.8,0.7c-0.3,0.2-0.6,0.3-0.8,0.3s-0.5,0.1-0.8,0.1 c-1.7,0-3.1-0.8-4.2-2.4v1.9H168.9z M177.5,132.1v-1.6c0-1.3,0-2.4-0.1-3.3c-0.1-0.9-0.2-1.7-0.3-2.3s-0.3-1.1-0.4-1.4 c-0.1-0.4-0.3-0.6-0.5-0.8c-0.2-0.2-0.4-0.3-0.6-0.3c-0.2,0-0.4-0.1-0.6-0.1c-1.1,0-2.2,0.7-3.5,2.1v13.6c0.5,0.6,1.1,1.1,1.7,1.5 s1.2,0.6,1.7,0.6c0.2,0,0.4,0,0.6,0s0.3-0.1,0.5-0.2c0.2-0.1,0.4-0.3,0.5-0.5c0.1-0.2,0.3-0.5,0.4-0.9s0.2-0.9,0.3-1.4 c0.1-0.6,0.1-1.2,0.2-2.1C177.4,134.1,177.5,133.2,177.5,132.1z"></path> <path class="st1" d="M193.5,141.5l-0.3-2.5c-0.6,1-1.2,1.7-2,2.2s-1.6,0.8-2.3,0.8c-1.1,0-2-0.4-2.8-1.3c-0.8-0.8-1.2-2-1.2-3.3 c0-0.4,0-0.7,0-0.9c0-0.2,0-0.5,0.1-0.9c0.1-0.4,0.1-0.7,0.2-0.9s0.2-0.5,0.4-0.9c0.2-0.3,0.4-0.7,0.7-0.9c0.3-0.3,0.6-0.6,1-0.9 c0.4-0.4,0.9-0.7,1.4-1c0.5-0.3,1.2-0.7,1.9-1c0.7-0.4,1.5-0.7,2.4-1.1v-0.2c0-1.2-0.1-2.2-0.2-3s-0.2-1.5-0.4-1.9 c-0.1-0.5-0.3-0.8-0.6-1.1c-0.2-0.3-0.5-0.4-0.7-0.5c-0.2-0.1-0.5-0.1-0.8-0.1c-0.3,0-0.6,0-0.8,0.1s-0.5,0.3-0.8,0.5 c-0.3,0.2-0.5,0.6-0.7,1.2c-0.2,0.6-0.3,1.3-0.3,2.1v0.1h-2.7c0.1-1.8,0.7-3.2,1.6-4.2c0.9-1,2.1-1.5,3.6-1.5 c0.8,0,1.6,0.1,2.2,0.4c0.6,0.3,1.2,0.6,1.5,1s0.7,0.9,0.9,1.5c0.2,0.6,0.4,1.2,0.5,1.7c0.1,0.6,0.1,1.1,0.1,1.8v9.9 c0,0.7,0,1.5,0.1,2.3c0.1,0.8,0.1,1.4,0.2,1.8l0.1,0.7H193.5z M193,137.3V130c-0.8,0.6-1.5,1.1-2,1.4c-0.5,0.4-1,0.8-1.5,1.2 c-0.5,0.5-0.9,0.9-1.2,1.3c-0.3,0.4-0.5,0.8-0.7,1.3c-0.2,0.5-0.3,1-0.3,1.6c0,1,0.2,1.7,0.6,2.2c0.4,0.5,0.9,0.7,1.5,0.7 c0.7,0,1.3-0.2,2-0.7S192.7,138,193,137.3z"></path> <path class="st1" d="M201,137v-16.2h2.6v16.3c0,1,0.2,1.8,0.6,2.2c0.4,0.5,0.9,0.7,1.6,0.7c0.5,0,1.1-0.2,1.7-0.6s1.2-0.9,1.7-1.5 v-17.1h2.6v20.6h-2.6v-1.9c-0.6,0.8-1.2,1.4-2,1.8c-0.8,0.4-1.6,0.6-2.4,0.6c-1,0-1.9-0.4-2.7-1.3S201,138.6,201,137z"></path> <path class="st1" d="M218.1,141.5v-20.6h2.6v1.9c1.3-1.6,2.9-2.4,4.6-2.4c0.7,0,1.4,0.2,2,0.7c0.7,0.4,1.1,1,1.4,1.7 c0.7-0.8,1.4-1.4,2.2-1.7c0.8-0.4,1.5-0.6,2.2-0.6c1.1,0,2,0.4,2.8,1.1c0.8,0.7,1.2,1.7,1.2,2.8v17.2h-2.6v-16.7 c0-0.9-0.2-1.5-0.6-1.9c-0.4-0.4-0.9-0.6-1.5-0.6c-1.1,0-2.2,0.6-3.3,1.7v17.5h-2.6v-16.7c0-1.6-0.7-2.5-2.2-2.5 c-0.6,0-1.2,0.2-1.9,0.6c-0.6,0.4-1.3,0.9-1.8,1.5v17.1H218.1z"></path> <path class="st1" d="M250.7,141.5l-0.3-2.5c-0.6,1-1.2,1.7-2,2.2s-1.6,0.8-2.3,0.8c-1.1,0-2-0.4-2.8-1.3c-0.8-0.8-1.2-2-1.2-3.3 c0-0.4,0-0.7,0-0.9c0-0.2,0-0.5,0.1-0.9c0.1-0.4,0.1-0.7,0.2-0.9s0.2-0.5,0.4-0.9c0.2-0.3,0.4-0.7,0.7-0.9c0.3-0.3,0.6-0.6,1-0.9 c0.4-0.4,0.9-0.7,1.4-1c0.5-0.3,1.2-0.7,1.9-1c0.7-0.4,1.5-0.7,2.4-1.1v-0.2c0-1.2-0.1-2.2-0.2-3s-0.2-1.5-0.4-1.9 c-0.1-0.5-0.3-0.8-0.6-1.1c-0.2-0.3-0.5-0.4-0.7-0.5c-0.2-0.1-0.5-0.1-0.8-0.1c-0.3,0-0.6,0-0.8,0.1s-0.5,0.3-0.8,0.5 c-0.3,0.2-0.5,0.6-0.7,1.2c-0.2,0.6-0.3,1.3-0.3,2.1v0.1h-2.7c0.1-1.8,0.7-3.2,1.6-4.2c0.9-1,2.1-1.5,3.6-1.5 c0.8,0,1.6,0.1,2.2,0.4c0.6,0.3,1.2,0.6,1.5,1s0.7,0.9,0.9,1.5c0.2,0.6,0.4,1.2,0.5,1.7c0.1,0.6,0.1,1.1,0.1,1.8v9.9 c0,0.7,0,1.5,0.1,2.3c0.1,0.8,0.1,1.4,0.2,1.8l0.1,0.7H250.7z M250.2,137.3V130c-0.8,0.6-1.5,1.1-2,1.4c-0.5,0.4-1,0.8-1.5,1.2 c-0.5,0.5-0.9,0.9-1.2,1.3c-0.3,0.4-0.5,0.8-0.7,1.3c-0.2,0.5-0.3,1-0.3,1.6c0,1,0.2,1.7,0.6,2.2c0.4,0.5,0.9,0.7,1.5,0.7 c0.7,0,1.3-0.2,2-0.7S249.8,138,250.2,137.3z"></path> <path class="st1" d="M258.3,141.5v-20.6h2.6v1.9c0.6-0.8,1.2-1.4,2-1.8c0.8-0.4,1.6-0.6,2.4-0.6c1,0,1.9,0.4,2.7,1.3 c0.8,0.9,1.2,2.1,1.2,3.6v16.2h-2.6v-16.3c0-1-0.2-1.8-0.6-2.2c-0.4-0.5-0.9-0.7-1.6-0.7c-0.5,0-1.1,0.2-1.7,0.6 c-0.6,0.4-1.2,0.9-1.7,1.5v17.1H258.3z"></path> <path class="st1" d="M282.7,141.5l-0.3-2.5c-0.6,1-1.2,1.7-2,2.2s-1.6,0.8-2.3,0.8c-1.1,0-2-0.4-2.8-1.3c-0.8-0.8-1.2-2-1.2-3.3 c0-0.4,0-0.7,0-0.9c0-0.2,0-0.5,0.1-0.9c0.1-0.4,0.1-0.7,0.2-0.9s0.2-0.5,0.4-0.9c0.2-0.3,0.4-0.7,0.7-0.9c0.3-0.3,0.6-0.6,1-0.9 c0.4-0.4,0.9-0.7,1.4-1c0.5-0.3,1.2-0.7,1.9-1c0.7-0.4,1.5-0.7,2.4-1.1v-0.2c0-1.2-0.1-2.2-0.2-3s-0.2-1.5-0.4-1.9 c-0.1-0.5-0.3-0.8-0.6-1.1c-0.2-0.3-0.5-0.4-0.7-0.5c-0.2-0.1-0.5-0.1-0.8-0.1c-0.3,0-0.6,0-0.8,0.1s-0.5,0.3-0.8,0.5 c-0.3,0.2-0.5,0.6-0.7,1.2c-0.2,0.6-0.3,1.3-0.3,2.1v0.1h-2.7c0.1-1.8,0.7-3.2,1.6-4.2c0.9-1,2.1-1.5,3.6-1.5 c0.8,0,1.6,0.1,2.2,0.4c0.6,0.3,1.2,0.6,1.5,1s0.7,0.9,0.9,1.5c0.2,0.6,0.4,1.2,0.5,1.7c0.1,0.6,0.1,1.1,0.1,1.8v9.9 c0,0.7,0,1.5,0.1,2.3c0.1,0.8,0.1,1.4,0.2,1.8l0.1,0.7H282.7z M282.2,137.3V130c-0.8,0.6-1.5,1.1-2,1.4c-0.5,0.4-1,0.8-1.5,1.2 c-0.5,0.5-0.9,0.9-1.2,1.3c-0.3,0.4-0.5,0.8-0.7,1.3c-0.2,0.5-0.3,1-0.3,1.6c0,1,0.2,1.7,0.6,2.2c0.4,0.5,0.9,0.7,1.5,0.7 c0.7,0,1.3-0.2,2-0.7S281.8,138,282.2,137.3z"></path> <path class="st1" d="M291.9,137.8c-0.1,0.3,0.1,0.5,0.5,0.6c0.4,0.1,1.3,0.3,2.8,0.7c0.5,0.1,0.8,0.2,1.1,0.2 c0.9,0.2,1.8,0.4,2.4,0.6c0.7,0.2,1.3,0.5,1.9,0.8c0.6,0.3,1,0.8,1.3,1.2s0.4,1,0.4,1.7c0,0.6-0.1,1.1-0.3,1.6s-0.4,0.9-0.7,1.2 c-0.3,0.3-0.7,0.6-1.1,0.8s-0.9,0.4-1.3,0.5c-0.4,0.1-0.9,0.2-1.4,0.3c-0.5,0.1-0.9,0.1-1.2,0.1c-0.3,0-0.7,0-1.1,0 c-4.6,0-6.9-0.9-6.9-2.7c0-1.2,0.4-2.2,1.1-3.1c0.7-0.9,1.7-1.6,2.7-2.2c-0.2,0-0.5-0.1-0.8-0.2c-0.4-0.1-0.8-0.3-1.3-0.5 s-0.7-0.5-0.7-0.7c0-0.1,0-0.3,0.1-0.5c0-0.2,0.1-0.4,0.2-0.6c0.1-0.2,0.2-0.4,0.3-0.6s0.2-0.4,0.3-0.6s0.3-0.4,0.4-0.6 c0.1-0.2,0.2-0.4,0.4-0.6c0.1-0.2,0.3-0.4,0.3-0.5s0.2-0.2,0.3-0.4c0.1-0.2,0.2-0.3,0.2-0.3c-0.8-0.7-1.4-1.7-1.8-2.8 c-0.4-1.2-0.6-2.4-0.6-3.6c0-0.7,0.1-1.3,0.2-2c0.1-0.7,0.3-1.3,0.6-2c0.3-0.7,0.7-1.2,1.1-1.7c0.4-0.5,1-0.9,1.7-1.2 c0.7-0.3,1.4-0.5,2.3-0.5c1.1,0,2,0.3,2.7,0.8s1.4,1.3,2.1,2.4c0.2-0.4,0.4-0.7,0.6-0.9c0.2-0.3,0.4-0.6,0.7-0.9 c0.3-0.3,0.6-0.6,0.9-0.9c0.3-0.2,0.7-0.4,1-0.5v2.5c-0.4,0.1-0.9,0.3-1.4,0.6c-0.5,0.3-0.9,0.7-1.2,1.1c0.4,1.2,0.7,2.3,0.7,3.1 c0,0.8-0.1,1.6-0.2,2.3c-0.1,0.7-0.4,1.4-0.7,2.1c-0.3,0.6-0.7,1.2-1.1,1.7c-0.5,0.5-1,0.8-1.7,1.1c-0.7,0.3-1.4,0.4-2.3,0.4 c-1,0-1.8-0.1-2.5-0.4C292.4,136.1,292,137.1,291.9,137.8z M297.2,141.4l-3.7-0.8c-0.6,0.4-1.2,1.1-1.7,1.9 c-0.6,0.9-0.9,1.6-0.9,2.2c0,0.3,0.1,0.5,0.2,0.7c0.1,0.2,0.3,0.4,0.6,0.5c0.3,0.1,0.5,0.2,0.7,0.3c0.2,0.1,0.5,0.1,0.9,0.1 c0.4,0,0.7,0,0.9,0.1c0.2,0,0.5,0,0.9,0c0.1,0,0.2,0,0.2,0c3,0,4.6-0.7,4.6-2.2c0-0.8-0.2-1.4-0.6-1.9 C298.9,141.9,298.2,141.6,297.2,141.4z M294,133c0.4,0.3,0.9,0.4,1.5,0.4c0.6,0,1.1-0.1,1.5-0.4c0.4-0.3,0.8-0.6,1-1 s0.4-0.8,0.6-1.3c0.1-0.5,0.2-1,0.3-1.4c0-0.4,0.1-0.8,0.1-1.2c0-0.4,0-0.8-0.1-1.2c0-0.4-0.1-0.9-0.3-1.4c-0.1-0.6-0.3-1-0.6-1.5 c-0.2-0.4-0.6-0.8-1-1.1s-0.9-0.4-1.5-0.4c-0.5,0-0.9,0.1-1.3,0.3s-0.7,0.5-0.9,0.8s-0.4,0.7-0.6,1.1c-0.2,0.4-0.3,0.8-0.4,1.3 c-0.1,0.5-0.1,0.8-0.2,1.2c0,0.3,0,0.7,0,1c0,0.4,0,0.8,0.1,1.2c0,0.4,0.1,0.9,0.3,1.4s0.3,1,0.6,1.3 C293.3,132.4,293.6,132.7,294,133z"></path> <path class="st1" d="M306.4,132v-2.9c0-1.4,0.1-2.7,0.3-3.7s0.5-1.9,0.8-2.5c0.3-0.6,0.7-1.1,1.2-1.5c0.5-0.4,1-0.6,1.5-0.8 c0.5-0.1,1.1-0.2,1.9-0.2c1.8,0,3.2,0.7,4,2s1.2,3.4,1.2,6.2c0,0.9,0,1.6,0,2.1H309v3.2c0,1.4,0.1,2.5,0.2,3.3s0.3,1.5,0.6,2 c0.3,0.4,0.6,0.7,0.9,0.9s0.8,0.2,1.3,0.2c0.8,0,1.4-0.4,1.9-1.2c0.5-0.8,0.8-2.1,0.8-3.9h2.4c-0.1,0.8-0.2,1.5-0.3,2.1 c-0.1,0.6-0.3,1.2-0.5,1.8c-0.2,0.6-0.6,1.1-0.9,1.5c-0.4,0.4-0.8,0.7-1.4,1c-0.6,0.3-1.2,0.4-2,0.4c-1.5,0-2.6-0.3-3.4-0.9 c-0.8-0.6-1.4-1.6-1.8-3C306.6,136.6,306.4,134.6,306.4,132z M309.1,129.4h5.7c0-0.5,0-0.9,0-1.4c0-0.5,0-0.9,0-1.4 c0-0.5-0.1-0.9-0.1-1.4s-0.1-0.8-0.2-1.2c-0.1-0.4-0.3-0.7-0.4-1s-0.4-0.5-0.7-0.7c-0.3-0.2-0.6-0.2-1-0.2c-0.6,0-1.2,0.1-1.6,0.3 c-0.4,0.2-0.7,0.5-0.9,0.8c-0.2,0.3-0.4,0.8-0.5,1.6c-0.1,0.7-0.2,1.4-0.2,1.9C309.1,127.3,309.1,128.2,309.1,129.4z"></path> <path class="st1" d="M322.5,141.5v-20.6h2.6v1.9c1.3-1.6,2.9-2.4,4.6-2.4c0.7,0,1.4,0.2,2,0.7c0.7,0.4,1.1,1,1.4,1.7 c0.7-0.8,1.4-1.4,2.2-1.7c0.8-0.4,1.5-0.6,2.2-0.6c1.1,0,2,0.4,2.8,1.1c0.8,0.7,1.2,1.7,1.2,2.8v17.2H339v-16.7 c0-0.9-0.2-1.5-0.6-1.9c-0.4-0.4-0.9-0.6-1.5-0.6c-1.1,0-2.2,0.6-3.3,1.7v17.5H331v-16.7c0-1.6-0.7-2.5-2.2-2.5 c-0.6,0-1.2,0.2-1.9,0.6c-0.6,0.4-1.3,0.9-1.8,1.5v17.1H322.5z"></path> <path class="st1" d="M347,132v-2.9c0-1.4,0.1-2.7,0.3-3.7s0.5-1.9,0.8-2.5c0.3-0.6,0.7-1.1,1.2-1.5c0.5-0.4,1-0.6,1.5-0.8 c0.5-0.1,1.1-0.2,1.9-0.2c1.8,0,3.2,0.7,4,2s1.2,3.4,1.2,6.2c0,0.9,0,1.6,0,2.1h-8.3v3.2c0,1.4,0.1,2.5,0.2,3.3s0.3,1.5,0.6,2 c0.3,0.4,0.6,0.7,0.9,0.9s0.8,0.2,1.3,0.2c0.8,0,1.4-0.4,1.9-1.2c0.5-0.8,0.8-2.1,0.8-3.9h2.4c-0.1,0.8-0.2,1.5-0.3,2.1 c-0.1,0.6-0.3,1.2-0.5,1.8c-0.2,0.6-0.6,1.1-0.9,1.5c-0.4,0.4-0.8,0.7-1.4,1c-0.6,0.3-1.2,0.4-2,0.4c-1.5,0-2.6-0.3-3.4-0.9 c-0.8-0.6-1.4-1.6-1.8-3C347.1,136.6,346.9,134.6,347,132z M349.6,129.4h5.7c0-0.5,0-0.9,0-1.4c0-0.5,0-0.9,0-1.4 c0-0.5-0.1-0.9-0.1-1.4s-0.1-0.8-0.2-1.2c-0.1-0.4-0.3-0.7-0.4-1s-0.4-0.5-0.7-0.7c-0.3-0.2-0.6-0.2-1-0.2c-0.6,0-1.2,0.1-1.6,0.3 c-0.4,0.2-0.7,0.5-0.9,0.8c-0.2,0.3-0.4,0.8-0.5,1.6c-0.1,0.7-0.2,1.4-0.2,1.9C349.6,127.3,349.6,128.2,349.6,129.4z"></path> <path class="st1" d="M363.1,141.5v-20.6h2.6v1.9c0.6-0.8,1.2-1.4,2-1.8c0.8-0.4,1.6-0.6,2.4-0.6c1,0,1.9,0.4,2.7,1.3 c0.8,0.9,1.2,2.1,1.2,3.6v16.2h-2.6v-16.3c0-1-0.2-1.8-0.6-2.2c-0.4-0.5-0.9-0.7-1.6-0.7c-0.5,0-1.1,0.2-1.7,0.6 c-0.6,0.4-1.2,0.9-1.7,1.5v17.1H363.1z"></path> <path class="st1" d="M380.3,136.6v-14.3h-2.8v-1.4h2.8v-7.3h2.6v7.3h3.3v1.4h-3.3v14.2c0,0.5,0,0.9,0,1.2s0,0.6,0.1,0.9 c0.1,0.3,0.2,0.6,0.3,0.7c0.1,0.2,0.3,0.3,0.5,0.4c0.2,0.1,0.5,0.2,0.8,0.2c0.6,0,1.1,0,1.5-0.1v1.8c-0.8,0.2-1.5,0.3-2.2,0.3 c-0.6,0-1.2-0.1-1.7-0.3c-0.5-0.2-0.8-0.5-1.1-0.8c-0.2-0.3-0.4-0.7-0.6-1.2c-0.1-0.5-0.2-1-0.3-1.4S380.3,137.2,380.3,136.6z"></path> </g> <g> <path class="st1" d="M40.2,92.1H43c0.5,0,0.9,0,1.3-0.1c0.4-0.1,0.8-0.3,1.1-0.5c0.3-0.3,0.6-0.7,0.8-1.2c0.2-0.5,0.3-1.3,0.3-2.1 V55c0-0.9-0.1-1.6-0.3-2.2c-0.2-0.5-0.4-1-0.8-1.2c-0.3-0.3-0.7-0.5-1.1-0.6c-0.4-0.1-0.9-0.1-1.3-0.1h-2.9v-3.6h21.9 c6.4,0,11.1,1.1,14.1,3.2c3,2.1,4.5,5.3,4.5,9.4c0,1.8-0.3,3.4-0.8,4.8c-0.5,1.4-1.2,2.6-2.1,3.7c-0.9,1-1.9,1.9-3,2.6 c-1.1,0.7-2.2,1.3-3.4,1.8l8.1,13.9c0.6,1,1.1,1.8,1.7,2.5c0.5,0.7,1.1,1.3,1.6,1.7c0.5,0.5,1.1,0.8,1.7,1 c0.6,0.2,1.2,0.3,1.8,0.3h0.3v3.6h-2.2c-2,0-3.8-0.1-5.3-0.2c-1.5-0.2-2.8-0.5-4-0.9c-1.1-0.5-2.1-1.1-3-1.9 c-0.8-0.8-1.6-1.8-2.3-3.1l-8.1-15h-4.5v13.4c0,0.9,0.1,1.6,0.3,2.1c0.2,0.5,0.4,1,0.8,1.2c0.3,0.3,0.7,0.5,1.1,0.5 c0.4,0.1,0.9,0.1,1.3,0.1h2.9v3.6H40.2V92.1z M57.2,70.7H61c1.6,0,2.9-0.2,3.9-0.6c1.1-0.4,1.9-1,2.5-1.9c0.6-0.8,1.1-1.9,1.4-3.1 c0.3-1.2,0.4-2.7,0.4-4.4c0-1.7-0.2-3.2-0.5-4.4c-0.3-1.2-0.8-2.2-1.5-2.9c-0.7-0.8-1.5-1.3-2.6-1.7c-1.1-0.3-2.3-0.5-3.8-0.5 h-3.7V70.7z"></path> <path class="st1" d="M107,91.6h13.6c0.7,0,1.3-0.1,1.8-0.4c0.5-0.3,0.9-0.6,1.3-1.1c0.4-0.5,0.6-1,0.8-1.6 c0.2-0.6,0.4-1.3,0.5-2.1l0.5-3.2h4.7l-0.5,12.5H89.9v-3.6h2.9c0.5,0,0.9,0,1.4-0.1c0.4-0.1,0.8-0.3,1.1-0.5 c0.3-0.3,0.6-0.7,0.7-1.2c0.2-0.5,0.3-1.3,0.3-2.1V55.2c0-1-0.1-1.7-0.3-2.3c-0.2-0.6-0.4-1-0.7-1.3c-0.3-0.3-0.7-0.5-1.1-0.6 c-0.4-0.1-0.9-0.1-1.4-0.1h-2.9v-3.6h37.7l0.3,12.5h-4.7l-0.3-3.2c-0.2-1.7-0.6-2.9-1.3-3.8c-0.7-0.9-1.7-1.3-3.1-1.3H107v17h16.1 v4.1H107V91.6z"></path> <path class="st1" d="M175.3,59.6c0,1.5-0.2,2.8-0.6,3.9c-0.4,1.1-1,2.1-1.7,2.9c-0.8,0.8-1.7,1.5-2.7,2.1 c-1.1,0.6-2.2,1.1-3.5,1.5v0.3c1.6,0.4,3,0.9,4.3,1.6s2.4,1.5,3.4,2.6c0.9,1,1.7,2.2,2.2,3.5c0.5,1.3,0.8,2.8,0.8,4.5 c0,4.5-1.6,7.8-4.9,10s-8.1,3.3-14.6,3.3H136v-3.6h2.8c0.5,0,1,0,1.4-0.1c0.4-0.1,0.8-0.3,1.1-0.6c0.3-0.3,0.6-0.8,0.7-1.3 c0.2-0.6,0.3-1.3,0.3-2.3V55.2c0-0.9-0.1-1.6-0.3-2.2s-0.4-1-0.8-1.3c-0.3-0.3-0.7-0.5-1.1-0.6c-0.4-0.1-0.9-0.2-1.4-0.2H136v-3.6 h19.8c6.5,0,11.3,1,14.6,3C173.6,52.2,175.3,55.3,175.3,59.6z M153,68.3h2.6c1.6,0,2.9-0.2,4-0.5c1.1-0.3,1.9-0.8,2.5-1.5 s1.1-1.6,1.3-2.7c0.3-1.1,0.4-2.4,0.4-4c0-1.5-0.1-2.8-0.4-3.9c-0.3-1-0.8-1.9-1.4-2.5s-1.5-1.1-2.6-1.4c-1.1-0.3-2.4-0.4-3.9-0.4 H153V68.3z M153,91.6h4.5c1.5,0,2.8-0.2,3.8-0.5c1.1-0.3,1.9-0.9,2.6-1.6c0.7-0.7,1.1-1.7,1.4-2.9c0.3-1.2,0.4-2.7,0.4-4.4 c0-1.7-0.1-3.1-0.4-4.3c-0.3-1.2-0.7-2.2-1.4-3s-1.5-1.4-2.5-1.8c-1-0.4-2.3-0.6-3.9-0.6H153V91.6z"></path> <path class="st1" d="M231.2,71.4c0,3.7-0.5,7.1-1.5,10.2c-1,3.1-2.5,5.7-4.4,7.9c-2,2.2-4.4,3.9-7.2,5.1c-2.8,1.2-6.1,1.8-9.8,1.8 c-3.9,0-7.3-0.6-10.1-1.8c-2.9-1.2-5.3-2.9-7.2-5.1c-1.9-2.2-3.3-4.8-4.3-7.9c-1-3.1-1.4-6.5-1.4-10.3s0.5-7.2,1.4-10.2 c1-3.1,2.4-5.7,4.3-7.8s4.3-3.8,7.2-5c2.9-1.2,6.3-1.8,10.2-1.8c3.7,0,6.9,0.6,9.8,1.8c2.8,1.2,5.2,2.9,7.2,5 c1.9,2.2,3.4,4.8,4.4,7.9C230.7,64.2,231.2,67.7,231.2,71.4z M196.6,71.4c0,3.3,0.2,6.2,0.6,8.7s1.1,4.7,2,6.5 c0.9,1.8,2.1,3.1,3.6,4c1.5,0.9,3.3,1.4,5.4,1.4c2.1,0,3.9-0.5,5.4-1.4c1.5-0.9,2.7-2.3,3.6-4s1.6-3.9,2-6.5s0.6-5.4,0.6-8.7 s-0.2-6.1-0.6-8.7c-0.4-2.5-1.1-4.7-2-6.5s-2.1-3.1-3.6-4c-1.5-0.9-3.2-1.4-5.3-1.4c-2.1,0-3.9,0.5-5.4,1.4 c-1.5,0.9-2.7,2.3-3.6,4c-0.9,1.8-1.6,3.9-2,6.5C196.8,65.3,196.6,68.2,196.6,71.4z"></path> <path class="st2" d="M265.5,91c1.7,0,3.1-0.2,4.4-0.6c1.3-0.4,2.4-0.9,3.5-1.5c1-0.6,1.9-1.3,2.7-2.1c0.8-0.8,1.4-1.5,2-2.3 c0.4,0.3,0.6,0.7,0.8,1.2c0.2,0.6,0.3,1.1,0.3,1.7c0,1-0.3,2-0.8,3c-0.5,1.1-1.4,2-2.6,2.9c-1.2,0.9-2.8,1.6-4.7,2.2 c-2,0.6-4.4,0.9-7.3,0.9c-3.9,0-7.4-0.6-10.3-1.8c-2.9-1.2-5.4-2.9-7.3-5.1c-1.9-2.2-3.4-4.8-4.4-7.9c-1-3.1-1.5-6.5-1.5-10.2 c0-3.7,0.5-7,1.5-10.1c1-3.1,2.5-5.7,4.4-7.9c2-2.2,4.4-3.9,7.3-5.1c2.9-1.2,6.3-1.8,10.2-1.8c2.6,0,4.9,0.2,6.8,0.6 c1.9,0.4,3.5,1,4.8,1.7c1.3,0.7,2.2,1.5,2.9,2.5c0.6,1,1,2,1,3.1c0,0.8-0.2,1.6-0.5,2.3c-0.4,0.7-0.9,1.3-1.6,1.9 c-0.7,0.5-1.6,0.9-2.7,1.2c-1.1,0.3-2.3,0.4-3.7,0.4c0-1.1-0.1-2.3-0.4-3.4c-0.2-1.1-0.7-2.1-1.2-3c-0.6-0.9-1.4-1.6-2.3-2.2 c-1-0.6-2.1-0.8-3.6-0.8c-2.1,0-4,0.5-5.4,1.4c-1.5,0.9-2.7,2.2-3.6,4c-0.9,1.7-1.5,3.9-1.9,6.5c-0.4,2.6-0.6,5.5-0.6,8.7 s0.2,6.1,0.7,8.6c0.5,2.5,1.3,4.5,2.4,6.1s2.5,2.8,4.2,3.7S263,91,265.5,91z"></path> <path class="st2" d="M333.5,71.4c0,3.7-0.5,7.1-1.5,10.2c-1,3.1-2.5,5.7-4.4,7.9c-2,2.2-4.4,3.9-7.2,5.1c-2.8,1.2-6.1,1.8-9.8,1.8 c-3.9,0-7.3-0.6-10.1-1.8c-2.9-1.2-5.3-2.9-7.2-5.1c-1.9-2.2-3.3-4.8-4.3-7.9c-1-3.1-1.4-6.5-1.4-10.3s0.5-7.2,1.4-10.2 c1-3.1,2.4-5.7,4.3-7.8s4.3-3.8,7.2-5c2.9-1.2,6.3-1.8,10.2-1.8c3.7,0,6.9,0.6,9.8,1.8c2.8,1.2,5.2,2.9,7.2,5 c1.9,2.2,3.4,4.8,4.4,7.9C333,64.2,333.5,67.7,333.5,71.4z M298.9,71.4c0,3.3,0.2,6.2,0.6,8.7s1.1,4.7,2,6.5 c0.9,1.8,2.1,3.1,3.6,4c1.5,0.9,3.3,1.4,5.4,1.4c2.1,0,3.9-0.5,5.4-1.4c1.5-0.9,2.7-2.3,3.6-4s1.6-3.9,2-6.5s0.6-5.4,0.6-8.7 s-0.2-6.1-0.6-8.7c-0.4-2.5-1.1-4.7-2-6.5s-2.1-3.1-3.6-4c-1.5-0.9-3.2-1.4-5.3-1.4c-2.1,0-3.9,0.5-5.4,1.4 c-1.5,0.9-2.7,2.3-3.6,4c-0.9,1.8-1.6,3.9-2,6.5C299.1,65.3,298.9,68.2,298.9,71.4z"></path> <path class="st2" d="M378.7,95.8l-26.5-37.4v29.4c0,1,0.1,1.7,0.3,2.3c0.2,0.6,0.4,1,0.7,1.3s0.7,0.5,1.1,0.6 c0.4,0.1,0.9,0.1,1.3,0.1h2.9v3.6h-17.8v-3.6h2.9c0.5,0,0.9,0,1.4-0.1s0.8-0.3,1.1-0.6c0.3-0.3,0.6-0.8,0.7-1.3 c0.2-0.6,0.3-1.3,0.3-2.3V55c0-0.9-0.1-1.6-0.3-2.2c-0.2-0.5-0.4-1-0.8-1.2c-0.3-0.3-0.7-0.5-1.1-0.6c-0.4-0.1-0.9-0.1-1.3-0.1 h-2.9v-3.6h15.1l24,33.9V55c0-0.9-0.1-1.6-0.3-2.2c-0.2-0.5-0.4-1-0.8-1.2c-0.3-0.3-0.7-0.5-1.1-0.6c-0.4-0.1-0.9-0.1-1.3-0.1 h-2.9v-3.6h17.8v3.6h-2.9c-0.5,0-0.9,0-1.3,0.1c-0.4,0.1-0.8,0.3-1.1,0.6c-0.3,0.3-0.6,0.8-0.7,1.3c-0.2,0.6-0.3,1.3-0.3,2.3v40.5 H378.7z"></path> </g> </g> </svg> 